<?xml version="1.0" encoding="UTF-8"?>
<svg version="1.1" xmlns="http://www.w3.org/2000/svg" width="726" height="726">
<path d="M0 0 C1.19537384 0.00215515 2.39074768 0.0043103 3.62234497 0.00653076 C20.74753934 0.05610712 37.52710122 0.37167596 54.4375 3.3125 C55.63632812 3.51117676 56.83515625 3.70985352 58.0703125 3.91455078 C124.62226515 15.13258825 187.69165368 43.4997994 238.4375 88.3125 C239.28183594 89.05757813 240.12617187 89.80265625 240.99609375 90.5703125 C243.4933666 92.7998777 245.96709681 95.05321072 248.4375 97.3125 C249.52460345 98.29442157 250.61185132 99.27618327 251.69921875 100.2578125 C256.95946345 105.02993898 262.09791841 109.75936177 266.65625 115.22265625 C268.86947645 117.81931448 271.21993775 120.26944199 273.5625 122.75 C279.80343424 129.47682012 285.31720472 136.71778828 290.78027344 144.08154297 C291.87172492 145.55085406 292.96860881 147.01614775 294.07128906 148.47705078 C303.1759695 160.54088923 311.05715824 173.12763183 318.4375 186.3125 C318.91960938 187.17214355 319.40171875 188.03178711 319.8984375 188.91748047 C339.407545 224.06216756 352.20720354 262.55055901 359.1875 302.0625 C359.38641846 303.185354 359.58533691 304.30820801 359.7902832 305.46508789 C362.99878517 324.60185443 363.81286816 343.49395635 363.75 362.875 C363.74784485 364.07037384 363.7456897 365.26574768 363.74346924 366.49734497 C363.69389288 383.62253934 363.37832404 400.40210122 360.4375 417.3125 C360.23882324 418.51132812 360.04014648 419.71015625 359.83544922 420.9453125 C348.61741175 487.49726515 320.2502006 550.56665368 275.4375 601.3125 C274.69242188 602.15683594 273.94734375 603.00117187 273.1796875 603.87109375 C270.9501223 606.3683666 268.69678928 608.84209681 266.4375 611.3125 C265.45557843 612.39960345 264.47381673 613.48685132 263.4921875 614.57421875 C258.72006102 619.83446345 253.99063823 624.97291841 248.52734375 629.53125 C245.93068552 631.74447645 243.48055801 634.09493775 241 636.4375 C234.27317988 642.67843424 227.03221172 648.19220472 219.66845703 653.65527344 C218.19914594 654.74672492 216.73385225 655.84360881 215.27294922 656.94628906 C203.20911077 666.0509695 190.62236817 673.93215824 177.4375 681.3125 C176.57785645 681.79460938 175.71821289 682.27671875 174.83251953 682.7734375 C139.68783244 702.282545 101.19944099 715.08220354 61.6875 722.0625 C60.564646 722.26141846 59.44179199 722.46033691 58.28491211 722.6652832 C39.14814557 725.87378517 20.25604365 726.68786816 0.875 726.625 C-0.91806076 726.62176727 -0.91806076 726.62176727 -2.74734497 726.61846924 C-19.87253934 726.56889288 -36.65210122 726.25332404 -53.5625 723.3125 C-54.76132812 723.11382324 -55.96015625 722.91514648 -57.1953125 722.71044922 C-123.74726515 711.49241175 -186.81665368 683.1252006 -237.5625 638.3125 C-238.40683594 637.56742188 -239.25117188 636.82234375 -240.12109375 636.0546875 C-242.6183666 633.8251223 -245.09209681 631.57178928 -247.5625 629.3125 C-248.64960345 628.33057843 -249.73685132 627.34881673 -250.82421875 626.3671875 C-256.08446345 621.59506102 -261.22291841 616.86563823 -265.78125 611.40234375 C-267.99447645 608.80568552 -270.34493775 606.35555801 -272.6875 603.875 C-278.92843424 597.14817988 -284.44220472 589.90721172 -289.90527344 582.54345703 C-290.99672492 581.07414594 -292.09360881 579.60885225 -293.19628906 578.14794922 C-302.3009695 566.08411077 -310.18215824 553.49736817 -317.5625 540.3125 C-318.28566406 539.02303467 -318.28566406 539.02303467 -319.0234375 537.70751953 C-338.532545 502.56283244 -351.33220354 464.07444099 -358.3125 424.5625 C-358.51141846 423.439646 -358.71033691 422.31679199 -358.9152832 421.15991211 C-362.12378517 402.02314557 -362.93786816 383.13104365 -362.875 363.75 C-362.87284485 362.55462616 -362.8706897 361.35925232 -362.86846924 360.12765503 C-362.81889288 343.00246066 -362.50332404 326.22289878 -359.5625 309.3125 C-359.36382324 308.11367188 -359.16514648 306.91484375 -358.96044922 305.6796875 C-347.74241175 239.12773485 -319.3752006 176.05834632 -274.5625 125.3125 C-273.81742187 124.46816406 -273.07234375 123.62382813 -272.3046875 122.75390625 C-270.0751223 120.2566334 -267.82178928 117.78290319 -265.5625 115.3125 C-264.58057843 114.22539655 -263.59881673 113.13814868 -262.6171875 112.05078125 C-257.84506102 106.79053655 -253.11563823 101.65208159 -247.65234375 97.09375 C-245.05568552 94.88052355 -242.60555801 92.53006225 -240.125 90.1875 C-233.39817988 83.94656576 -226.15721172 78.43279528 -218.79345703 72.96972656 C-217.32414594 71.87827508 -215.85885225 70.78139119 -214.39794922 69.67871094 C-202.33411077 60.5740305 -189.74736817 52.69284176 -176.5625 45.3125 C-175.70285645 44.83039062 -174.84321289 44.34828125 -173.95751953 43.8515625 C-138.81283244 24.342455 -100.32444099 11.54279646 -60.8125 4.5625 C-59.689646 4.36358154 -58.56679199 4.16466309 -57.40991211 3.9597168 C-38.27314557 0.75121483 -19.38104365 -0.06286816 0 0 Z " fill="#000C40" transform="translate(362.5625,-0.31250000000000006)"/>
<path d="M0 0 C6.24022498 0.90065103 10.70563107 5.22390019 15.35546875 9.1640625 C18.17218546 11.35603215 19.98471503 12.37251448 23.375 13.25 C29.59148923 14.86674262 32.35975168 19.74133019 35.5 25 C37.18273419 27.83845908 37.18273419 27.83845908 40.125 28 C42.39172888 27.79605006 42.39172888 27.79605006 43.4375 26.5625 C46.61295231 26.28023757 48.76981447 26.22865724 51.6484375 27.66796875 C53.4375 29.5625 53.4375 29.5625 53.58203125 32.56640625 C53.47246094 33.74074219 53.36289062 34.91507813 53.25 36.125 C53.01686752 42.99181115 54.46764493 46.01854018 58.74609375 51.23046875 C61.36084582 54.83556571 61.80471953 58.20334563 62.4375 62.5625 C63.40171875 62.62308594 64.3659375 62.68367188 65.359375 62.74609375 C66.62265625 62.82988281 67.8859375 62.91367188 69.1875 63 C70.44046875 63.08121094 71.6934375 63.16242188 72.984375 63.24609375 C75.62067553 63.48765522 77.91787294 63.80533934 80.4375 64.5625 C80.4375 65.2225 80.4375 65.8825 80.4375 66.5625 C81.05625 66.68625 81.675 66.81 82.3125 66.9375 C84.4375 67.5625 84.4375 67.5625 86.4375 69.5625 C86.6328125 71.9453125 86.6328125 71.9453125 86.5625 74.6875 C86.54445313 75.59757812 86.52640625 76.50765625 86.5078125 77.4453125 C86.48460937 78.14398438 86.46140625 78.84265625 86.4375 79.5625 C85.7775 79.5625 85.1175 79.5625 84.4375 79.5625 C84.19257812 80.305 83.94765625 81.0475 83.6953125 81.8125 C80.37495228 89.0719211 72.1193495 93.67487847 65.4375 97.5625 C65.83388895 101.18545659 65.83388895 101.18545659 68 103.9375 C70.3088299 106.54748162 69.62603244 109.23176021 69.4375 112.5625 C68.633125 112.830625 67.82875 113.09875 67 113.375 C66.154375 113.766875 65.30875 114.15875 64.4375 114.5625 C64.1075 115.5525 63.7775 116.5425 63.4375 117.5625 C60.90738255 118.45951455 58.46289416 119.1952053 55.875 119.875 C48.88119105 121.86193918 43.64223394 124.35776606 38.4375 129.5625 C38.20386119 131.41141946 38.02446365 133.26738031 37.875 135.125 C37.79121094 136.13691406 37.70742188 137.14882813 37.62109375 138.19140625 C37.56050781 138.97386719 37.49992188 139.75632812 37.4375 140.5625 C38.0975 140.5625 38.7575 140.5625 39.4375 140.5625 C41.5090868 143.6698802 41.96195361 146.74577842 41.90625 150.45703125 C41.03947153 154.35031121 38.25342709 156.88066468 35.4375 159.5625 C35.77136719 160.16835938 36.10523438 160.77421875 36.44921875 161.3984375 C37.74100121 164.22708368 37.43241817 165.65427764 36.4375 168.5625 C35.4475 169.2225 34.4575 169.8825 33.4375 170.5625 C34.11388011 173.67065785 34.11388011 173.67065785 36.5 174.8125 C38.4375 176.5625 38.4375 176.5625 38.6875 180.25 C38.605 181.343125 38.5225 182.43625 38.4375 183.5625 C37.7775 183.5625 37.1175 183.5625 36.4375 183.5625 C36.4375 184.2225 36.4375 184.8825 36.4375 185.5625 C33.15258627 187.75244248 31.60654361 187.91527339 27.75 188.1875 C26.25919922 188.29964844 26.25919922 188.29964844 24.73828125 188.4140625 C23.59939453 188.48753906 23.59939453 188.48753906 22.4375 188.5625 C22.37691406 189.46613281 22.31632813 190.36976563 22.25390625 191.30078125 C22.17011719 192.48027344 22.08632813 193.65976562 22 194.875 C21.87818359 196.63263672 21.87818359 196.63263672 21.75390625 198.42578125 C21.4375 201.5625 21.4375 201.5625 20.4375 204.5625 C19.7775 204.5625 19.1175 204.5625 18.4375 204.5625 C18.128125 205.18125 17.81875 205.8 17.5 206.4375 C16.8125 207.8125 16.125 209.1875 15.4375 210.5625 C14.28749512 210.54678955 14.28749512 210.54678955 13.11425781 210.53076172 C9.63870526 210.48917301 6.16320509 210.46316449 2.6875 210.4375 C0.87765625 210.41236328 0.87765625 210.41236328 -0.96875 210.38671875 C-2.70898438 210.37705078 -2.70898438 210.37705078 -4.484375 210.3671875 C-6.08684082 210.35147705 -6.08684082 210.35147705 -7.72167969 210.33544922 C-10.61734401 210.56688337 -12.20199447 210.89255023 -14.5625 212.5625 C-15.69961228 214.31602557 -15.69961228 214.31602557 -16.4140625 216.40625 C-16.70796875 217.15777344 -17.001875 217.90929687 -17.3046875 218.68359375 C-17.74167969 219.86115234 -17.74167969 219.86115234 -18.1875 221.0625 C-18.77941661 222.6162811 -19.37558844 224.16844966 -19.9765625 225.71875 C-20.36255615 226.75225586 -20.36255615 226.75225586 -20.75634766 227.80664062 C-21.5625 229.5625 -21.5625 229.5625 -23.5625 231.5625 C-26.6875 231.6875 -26.6875 231.6875 -29.5625 231.5625 C-29.35438712 237.15701646 -29.35438712 237.15701646 -26.6875 241.8125 C-25.98625 242.39 -25.285 242.9675 -24.5625 243.5625 C-21.71730051 246.20694332 -21.34735905 248.38620241 -21.19140625 252.1171875 C-21.13755547 254.78579263 -21.12498946 257.451978 -21.12304688 260.12109375 C-21.00159609 265.7413333 -20.45897521 269.19149693 -16.5625 273.5625 C-11.72949362 277.58134401 -5.9872946 277.31418368 0.01953125 277.734375 C1.18935547 277.83492188 1.18935547 277.83492188 2.3828125 277.9375 C3.08937988 277.98648437 3.79594727 278.03546875 4.52392578 278.0859375 C6.98552225 278.69898117 7.92705495 279.54002981 9.4375 281.5625 C9.89752362 287.08278344 9.17922514 291.33732458 7.4375 296.5625 C6.7775 296.5625 6.1175 296.5625 5.4375 296.5625 C5.1075 297.5525 4.7775 298.5425 4.4375 299.5625 C0.43097838 302.23351441 -2.84935449 302.27863165 -7.5625 301.5625 C-10.3125 299.5625 -10.3125 299.5625 -12.5625 297.5625 C-15.19028044 297.06114801 -15.19028044 297.06114801 -17.5625 297.5625 C-18.2225 298.2225 -18.8825 298.8825 -19.5625 299.5625 C-23.97435126 300.2028425 -26.64017879 299.84951915 -30.16796875 297.2265625 C-31.3761596 296.23049676 -32.57006798 295.21688453 -33.75 294.1875 C-41.51923568 287.58026778 -41.51923568 287.58026778 -51.5625 286.5625 C-53.05993119 288.05993119 -52.89452693 289.55074239 -53.125 291.625 C-53.269375 292.924375 -53.41375 294.22375 -53.5625 295.5625 C-50.24186551 297.53586035 -47.5809389 297.83771376 -43.75 298 C-38.65359355 298.37381954 -34.89004282 298.77363907 -30.5625 301.5625 C-29.3125 304.3125 -29.3125 304.3125 -29.5625 307.5625 C-30.9765594 310.12323302 -32.66430464 312.34246529 -34.5625 314.5625 C-33.94375 314.706875 -33.325 314.85125 -32.6875 315 C-30.5625 315.5625 -30.5625 315.5625 -28.5625 316.5625 C-26.10809388 324.25706318 -25.08594481 332.36128903 -24.03515625 340.34375 C-23.63571351 343.06392204 -23.1077375 345.65029789 -22.4375 348.3125 C-21.2451728 353.3165189 -20.19776656 359.83303312 -22.5625 364.5625 C-23.2225 364.5625 -23.8825 364.5625 -24.5625 364.5625 C-24.96275391 365.66658203 -24.96275391 365.66658203 -25.37109375 366.79296875 C-26.53546162 369.49964685 -27.87302261 371.52037683 -29.625 373.875 C-31.76570592 376.95577725 -32.85729158 378.93228758 -32.9375 382.6875 C-33.85531298 388.37794047 -37.08393337 390.25617564 -41.5625 393.5625 C-43.14955976 394.74501512 -44.73294047 395.93248485 -46.3125 397.125 C-47.02921875 397.64191406 -47.7459375 398.15882813 -48.484375 398.69140625 C-51.80936343 401.68514583 -54.27919543 404.37379404 -54.87304688 408.96166992 C-54.99640953 412.72731482 -54.9570421 416.47789552 -54.875 420.24414062 C-54.93511549 427.52312424 -56.6726907 432.11301374 -61.5625 437.5625 C-65.23068245 440.54217502 -68.29097462 440.9611171 -72.9375 441.375 C-78.55868351 442.10214972 -81.02812662 443.34062662 -84.953125 447.265625 C-87.43057361 449.26201563 -89.50860218 449.51786327 -92.6328125 449.29296875 C-96.56994738 447.80259583 -98.59833686 444.1170236 -100.5625 440.5625 C-101.70327657 437.14017028 -101.66065117 434.47576783 -101.625 430.875 C-101.61597656 429.69550781 -101.60695313 428.51601563 -101.59765625 427.30078125 C-101.58605469 426.39714844 -101.57445312 425.49351562 -101.5625 424.5625 C-102.50351562 424.59988281 -103.44453125 424.63726563 -104.4140625 424.67578125 C-107.5625 424.5625 -107.5625 424.5625 -109.9375 422.75 C-112.34143853 420.05327409 -114.3513497 417.06968138 -116.4375 414.125 C-120.26346551 408.7657553 -124.11081051 403.71306316 -130.5625 401.5625 C-133.90027068 401.1984451 -137.23543835 400.84743487 -140.58203125 400.57617188 C-145.36682425 400.07274393 -148.47208529 399.35036239 -151.5625 395.5625 C-152.12500069 392.6773308 -151.99010361 389.92305934 -151.8125 387 C-151.46342494 381.20773817 -151.46342494 381.20773817 -152.5625 375.5625 C-153.00160859 369.19542551 -151.89830528 364.46242196 -149.5625 358.5625 C-149.2840625 357.80710937 -149.005625 357.05171875 -148.71875 356.2734375 C-146.43255705 350.53824658 -143.28022325 345.61808666 -138.5625 341.5625 C-134.83684444 340.1802888 -133.15207769 340.97640753 -129.5625 342.5625 C-127.23501306 343.24929942 -124.90263344 343.92011043 -122.5625 344.5625 C-122.5625 340.2725 -122.5625 335.9825 -122.5625 331.5625 C-123.84125 331.046875 -125.12 330.53125 -126.4375 330 C-135.03848374 326.15183616 -143.95145039 320.2624458 -149.5625 312.5625 C-150.44848553 307.51238251 -149.124649 303.34658131 -147.5625 298.5625 C-148.284375 298.665625 -149.00625 298.76875 -149.75 298.875 C-152.5625 298.5625 -152.5625 298.5625 -155.375 296.5 C-157.5625 293.5625 -157.5625 293.5625 -158.5 290.3125 C-157.17549602 285.01448408 -153.98859425 282.86427322 -149.84765625 279.48046875 C-147.49941039 277.76764663 -147.49941039 277.76764663 -146.5625 275.5625 C-145.9025 275.5625 -145.2425 275.5625 -144.5625 275.5625 C-144.8925 272.5925 -145.2225 269.6225 -145.5625 266.5625 C-146.2225 266.5625 -146.8825 266.5625 -147.5625 266.5625 C-147.68625 265.923125 -147.81 265.28375 -147.9375 264.625 C-148.14375 263.944375 -148.35 263.26375 -148.5625 262.5625 C-149.2225 262.2325 -149.8825 261.9025 -150.5625 261.5625 C-150.5625 262.2225 -150.5625 262.8825 -150.5625 263.5625 C-153.375 263.8125 -153.375 263.8125 -156.5625 263.5625 C-159.30074561 261.07897492 -159.55906312 259.60454595 -159.86328125 255.8828125 C-159.872914 254.48440272 -159.87659567 253.08594205 -159.875 251.6875 C-159.86297948 246.34554606 -159.86297948 246.34554606 -161.98828125 241.6015625 C-162.54902344 241.17617188 -163.10976563 240.75078125 -163.6875 240.3125 C-166.5625 237.5625 -166.5625 237.5625 -166.875 234.73046875 C-166.59622323 229.92737723 -166.10799851 226.47752976 -163.625 222.3125 C-161.5625 220.5625 -161.5625 220.5625 -159.5625 220.5625 C-159.5625 219.9025 -159.5625 219.2425 -159.5625 218.5625 C-158.1703125 217.9746875 -158.1703125 217.9746875 -156.75 217.375 C-153.13357011 215.31859869 -152.25408491 214.30707668 -150.5625 210.5625 C-150.18948402 207.73751116 -150.23342223 204.96932865 -150.3125 202.125 C-150.31765625 201.38701172 -150.3228125 200.64902344 -150.328125 199.88867188 C-150.38803753 195.67607214 -150.81716114 191.71675303 -151.5625 187.5625 C-152.54148462 176.39244594 -150.48528006 164.67533115 -144.0546875 155.2890625 C-141.75848612 152.63220122 -139.05418728 150.51236048 -136.359375 148.2734375 C-132.25516746 144.36551815 -131.25586078 138.93261376 -130.28515625 133.5546875 C-129.18206915 130.5137447 -127.9272958 128.79042659 -125.5625 126.5625 C-122.09840297 126.06710863 -118.97105355 126.03042173 -115.49414062 126.11328125 C-111.4923782 126.07577645 -109.82428651 125.7829896 -106.71484375 123.1640625 C-106.00457031 122.30554688 -105.29429687 121.44703125 -104.5625 120.5625 C-102.03127858 118.4109618 -99.98249428 116.73605646 -96.90625 115.46484375 C-95.74609375 114.52318359 -95.74609375 114.52318359 -94.5625 113.5625 C-94.26224613 109.91066235 -94.44448499 106.617794 -94.7578125 102.98632812 C-94.97590028 98.84629512 -94.87488807 96.37845135 -92.203125 93.078125 C-89.5625 90.5625 -89.5625 90.5625 -87.3125 89.625 C-86.735 89.274375 -86.1575 88.92375 -85.5625 88.5625 C-85.43875 87.44875 -85.315 86.335 -85.1875 85.1875 C-84.5625 81.5625 -84.5625 81.5625 -81.625 79.4375 C-80.614375 78.81875 -79.60375 78.2 -78.5625 77.5625 C-77.15059436 74.95812767 -77.15059436 74.95812767 -76.5625 72.5625 C-75.9025 72.5625 -75.2425 72.5625 -74.5625 72.5625 C-74.8925 70.9125 -75.2225 69.2625 -75.5625 67.5625 C-77.5425 67.0675 -77.5425 67.0675 -79.5625 66.5625 C-79.5625 65.9025 -79.5625 65.2425 -79.5625 64.5625 C-80.820625 64.418125 -82.07875 64.27375 -83.375 64.125 C-85.98917123 63.82501314 -88.03689892 63.40436703 -90.5625 62.5625 C-92.7274902 62.46764218 -94.89543823 62.43261923 -97.0625 62.4375 C-98.2071875 62.43492187 -99.351875 62.43234375 -100.53125 62.4296875 C-103.60929859 62.42565592 -103.60929859 62.42565592 -106.5625 63.5625 C-108.9375 63.80078125 -108.9375 63.80078125 -111.5625 63.875 C-112.42875 63.91238281 -113.295 63.94976562 -114.1875 63.98828125 C-116.5625 63.5625 -116.5625 63.5625 -118.3359375 61.71875 C-120.10123866 58.61541802 -120.25440487 57.09121486 -119.5625 53.5625 C-117.82958362 51.65671362 -115.96377095 49.96691178 -114.0625 48.23046875 C-112.26443925 46.59539307 -112.26443925 46.59539307 -112.5 43.8125 C-113.58905972 41.36417289 -113.58905972 41.36417289 -115.5625 38.5625 C-116.10923721 33.31382275 -116.10923721 33.31382275 -114.3515625 30.8984375 C-112.00359359 29.14515067 -110.5328236 29.161264 -107.625 29.1875 C-106.77035156 29.17976563 -105.91570312 29.17203125 -105.03515625 29.1640625 C-102.5625 29.5625 -102.5625 29.5625 -100.75488281 31.06030273 C-97.99966813 32.94814638 -96.33098124 32.9628324 -93.01171875 32.99609375 C-91.92729492 33.00729248 -90.84287109 33.01849121 -89.72558594 33.0300293 C-88.0051709 33.01516479 -88.0051709 33.01516479 -86.25 33 C-84.49671387 32.99190308 -84.49671387 32.99190308 -82.70800781 32.98364258 C-68.48832279 32.73443363 -56.06849115 30.15253977 -45.4921875 20.0859375 C-42.2509735 17.52708435 -39.29827931 17.44946935 -35.2890625 17.7734375 C-25.90862803 18.38769114 -25.90862803 18.38769114 -17.43603516 15.04736328 C-15.47889924 13.12014536 -13.72630349 11.1359598 -12 9 C-5.04192493 0.40567212 -5.04192493 0.40567212 0 0 Z " fill="#83B4FA" transform="translate(556.5625,172.4375)"/>
<path d="M0 0 C1.22589844 0.01353516 1.22589844 0.01353516 2.4765625 0.02734375 C3.10304688 0.03894531 3.72953125 0.05054688 4.375 0.0625 C4.375 0.7225 4.375 1.3825 4.375 2.0625 C5.035 2.0625 5.695 2.0625 6.375 2.0625 C8.2393205 6.01957553 8.61895882 9.14240563 8.5625 13.5 C8.55605469 14.59183594 8.54960937 15.68367188 8.54296875 16.80859375 C8.375 20.0625 8.375 20.0625 7.375 26.0625 C14.305 26.0625 21.235 26.0625 28.375 26.0625 C29.365 28.0425 29.365 28.0425 30.375 30.0625 C32.355 30.0625 34.335 30.0625 36.375 30.0625 C36.375 30.7225 36.375 31.3825 36.375 32.0625 C37.64759511 31.60908132 38.91801243 31.14954773 40.1875 30.6875 C40.89519531 30.43226563 41.60289062 30.17703125 42.33203125 29.9140625 C44.62273359 29.0359231 44.62273359 29.0359231 47.375 27.0625 C50.5625 26.9375 50.5625 26.9375 53.375 27.0625 C53.375 27.7225 53.375 28.3825 53.375 29.0625 C54.15875 29.330625 54.9425 29.59875 55.75 29.875 C58.375 31.0625 58.375 31.0625 60.375 34.0625 C63.66076388 34.46664686 63.66076388 34.46664686 67.375 34.3125 C68.633125 34.29703125 69.89125 34.2815625 71.1875 34.265625 C74.27079531 34.27686312 74.27079531 34.27686312 76.375 33.0625 C78.37460012 33.022508 80.37547242 33.01903201 82.375 33.0625 C82.375 32.4025 82.375 31.7425 82.375 31.0625 C84.025 31.0625 85.675 31.0625 87.375 31.0625 C87.4575 32.09375 87.54 33.125 87.625 34.1875 C88.47753301 38.59225387 89.71741489 40.54762937 92.375 44.0625 C96.19313447 43.78709296 96.19313447 43.78709296 99.375 42.0625 C101.265625 41.859375 101.265625 41.859375 103.625 41.8125 C104.39328125 41.78671875 105.1615625 41.7609375 105.953125 41.734375 C108.375 42.0625 108.375 42.0625 110.74609375 43.50390625 C113.92204374 45.3868246 116.54077128 45.77113663 120.1875 46.25 C121.92966797 46.48783203 121.92966797 46.48783203 123.70703125 46.73046875 C124.58746094 46.84003906 125.46789062 46.94960938 126.375 47.0625 C126.045 47.7225 125.715 48.3825 125.375 49.0625 C125.14401279 52.25965627 124.98014258 55.44963267 124.85742188 58.65234375 C124.58900469 63.84849531 124.58900469 63.84849531 122.375 66.0625 C119.85644531 66.21020508 119.85644531 66.21020508 116.703125 66.08203125 C115.56359375 66.05302734 114.4240625 66.02402344 113.25 65.99414062 C110.84852565 65.91521286 108.44741513 65.82421987 106.046875 65.72070312 C98.94031456 65.36590568 98.94031456 65.36590568 92.69140625 68.2265625 C90.38785837 71.04675772 89.15288746 73.17130579 88.0625 76.625 C87.75699219 77.55441406 87.45148438 78.48382813 87.13671875 79.44140625 C86.49779684 81.63995292 85.90427209 83.83536499 85.375 86.0625 C84.67632813 86.03929687 83.97765625 86.01609375 83.2578125 85.9921875 C82.34773437 85.97414063 81.43765625 85.95609375 80.5 85.9375 C79.59507812 85.91429687 78.69015625 85.89109375 77.7578125 85.8671875 C75.18693006 85.81925164 75.18693006 85.81925164 73.375 88.0625 C73.0149202 91.44281919 73.0149202 91.44281919 73.0625 95.3125 C73.03736328 97.26929688 73.03736328 97.26929688 73.01171875 99.265625 C73.48329114 104.19431706 74.8676864 107.5551864 78.375 111.0625 C78.375 112.3825 78.375 113.7025 78.375 115.0625 C79.86 115.5575 79.86 115.5575 81.375 116.0625 C81.354375 117.22265625 81.33375 118.3828125 81.3125 119.578125 C81.36671712 131.61690774 83.22744885 138.80746688 91.93359375 147.64453125 C97.43096217 151.68545401 105.80689578 150.89343683 112.375 151.0625 C112.375 152.3825 112.375 153.7025 112.375 155.0625 C111.715 155.0625 111.055 155.0625 110.375 155.0625 C110.045 156.0525 109.715 157.0425 109.375 158.0625 C106.44249674 157.62805507 105.25577888 156.96162059 102.9375 155 C100.55252052 152.87168121 100.55252052 152.87168121 97.75 152.6875 C95.11486181 152.93393286 95.11486181 152.93393286 92.375 155.0625 C88.30943799 155.50601586 86.23435881 155.72354524 82.9375 153.1875 C81.375 151.0625 81.375 151.0625 81.375 149.0625 C80.4159375 148.69125 80.4159375 148.69125 79.4375 148.3125 C76.375 147.0625 76.375 147.0625 74.4609375 146.0390625 C68.29325616 142.87672407 62.26819887 141.91363352 55.375 143.0625 C51.85575951 145.69226212 51.27330912 148.84735722 50.375 153.0625 C49.76552396 158.50575151 50.64636233 162.28738407 53.375 167.0625 C53.375 167.7225 53.375 168.3825 53.375 169.0625 C58.17372101 171.30190314 63.20355847 172.1185864 68.375 173.0625 C68.106875 174.114375 67.83875 175.16625 67.5625 176.25 C66.94114641 180.17721685 66.94114641 180.17721685 69.6875 182.875 C70.574375 183.596875 71.46125 184.31875 72.375 185.0625 C75.0832444 187.7707444 74.66779059 189.40751484 74.8125 193.1875 C75.26386006 200.34591225 76.14278292 205.87282127 81.375 211.0625 C82.0625 213.3125 82.0625 213.3125 82.375 216.0625 C82.5915625 217.7021875 82.5915625 217.7021875 82.8125 219.375 C82.22140227 224.35710943 79.90084678 227.54578754 76.375 231.0625 C75.715 231.0625 75.055 231.0625 74.375 231.0625 C72.44128154 234.34514303 72.150727 236.9833723 71.875 240.75 C70.69575726 248.44315501 66.33542737 251.5486091 60.375 256.0625 C58.90490668 257.27757713 57.44540068 258.5056513 56 259.75 C55.39414062 260.24886719 54.78828125 260.74773437 54.1640625 261.26171875 C51.07330656 264.37271982 48.57625965 266.96910731 48.13964844 271.51049805 C48.16841753 275.35356966 48.38262327 279.17267087 48.61914062 283.0078125 C48.91210529 291.12238086 48.91210529 291.12238086 46.30859375 294.71484375 C42.7165273 297.58945352 40.92190875 297.70829466 36.375 297.625 C31.69047393 297.5728037 31.69047393 297.5728037 27.4921875 299.25390625 C26.41787858 300.49375334 25.39154916 301.77487106 24.375 303.0625 C22.1875 303.25 22.1875 303.25 20.375 302.0625 C18.22105549 296.81325745 17.74500474 291.48613271 17.25195312 285.89648438 C16.79721445 281.58261212 16.00115869 278.54429936 13.375 275.0625 C11.4491837 273.89384845 11.4491837 273.89384845 9.37890625 274.16796875 C4.57239117 274.32946766 2.15220762 273.767508 -1.484375 270.46875 C-2.91730186 268.8965617 -4.27767767 267.29359533 -5.60522461 265.6315918 C-9.52617926 260.77092273 -14.21650574 256.98340567 -20.625 256.0625 C-22.87207241 255.8426777 -25.12271238 255.65766013 -27.375 255.5 C-28.54546875 255.41621094 -29.7159375 255.33242188 -30.921875 255.24609375 C-31.81390625 255.18550781 -32.7059375 255.12492188 -33.625 255.0625 C-33.625 253.7425 -33.625 252.4225 -33.625 251.0625 C-32.965 251.0625 -32.305 251.0625 -31.625 251.0625 C-31.70878906 250.0003125 -31.79257812 248.938125 -31.87890625 247.84375 C-32.79642126 235.5539927 -32.9569723 225.79430957 -25.625 215.0625 C-23.5703125 214.15625 -23.5703125 214.15625 -21.625 214.0625 C-20.861875 214.371875 -20.09875 214.68125 -19.3125 215 C-15.78624442 216.39410104 -13.38252491 216.60904908 -9.625 216.0625 C-7.27177204 213.15837454 -7.27177204 213.15837454 -5.625 210.0625 C-4.965 210.0625 -4.305 210.0625 -3.625 210.0625 C-2.75896357 206.30736603 -2.46163304 202.78913242 -2.4375 198.9375 C-2.42332031 197.90367187 -2.40914063 196.86984375 -2.39453125 195.8046875 C-2.42091855 192.84529966 -2.42091855 192.84529966 -4.625 190.0625 C-6.35317867 189.39848504 -8.10876056 188.80490143 -9.875 188.25 C-15.85917454 185.89699933 -19.84931422 182.53091041 -24.375 178 C-24.99536133 177.38600342 -25.61572266 176.77200684 -26.25488281 176.1394043 C-30.625 171.59223691 -30.625 171.59223691 -30.625 167.0625 C-29.965 167.0625 -29.305 167.0625 -28.625 167.0625 C-28.64626462 163.65635054 -28.64626462 163.65635054 -29.625 160.0625 C-32.55949408 158.05208997 -32.55949408 158.05208997 -35.625 157.0625 C-35.625 155.0825 -35.625 153.1025 -35.625 151.0625 C-33.83463542 150.0859375 -32.04427083 149.109375 -30.25390625 148.1328125 C-28.45881685 147.14839976 -28.45881685 147.14839976 -27.625 145.0625 C-26.87349533 135.77604943 -26.49411436 127.67966095 -32.625 120.0625 C-35.1904594 117.4970406 -37.10186668 117.52203913 -40.625 117.0625 C-40.55539062 116.25425781 -40.48578125 115.44601562 -40.4140625 114.61328125 C-39.80489027 108.65150955 -39.80489027 108.65150955 -41.9609375 103.3984375 C-42.78464844 102.82996094 -42.78464844 102.82996094 -43.625 102.25 C-44.615 101.528125 -45.605 100.80625 -46.625 100.0625 C-47.23976744 95.60543606 -47.1349972 93.82749581 -44.625 90.0625 C-42.8203125 89.2109375 -42.8203125 89.2109375 -40.75 88.4375 C-36.29746124 86.35264519 -35.02852967 83.76501717 -33.31640625 79.28125 C-32.05050709 75.21892952 -31.51739028 71.84719128 -31.59765625 67.5625 C-31.60990234 66.510625 -31.62214844 65.45875 -31.63476562 64.375 C-31.66992292 62.16660104 -31.70898579 59.95826081 -31.75195312 57.75 C-31.76291016 56.698125 -31.77386719 55.64625 -31.78515625 54.5625 C-31.80199463 53.6034375 -31.81883301 52.644375 -31.83618164 51.65625 C-31.61416469 48.9294199 -30.91123762 47.43699704 -29.625 45.0625 C-29.37483575 42.64980474 -29.17142665 40.23206473 -29 37.8125 C-28.34777284 31.299613 -26.61062894 27.95756546 -21.58984375 23.75390625 C-17.76749455 20.46349432 -16.07605666 16.21064422 -14.25 11.5625 C-11.19181713 4.97564458 -7.58312397 -0.10833034 0 0 Z " fill="#FD9957" transform="translate(445.625,307.9375)"/>
<path d="M0 0 C6.780933 -0.07596188 13.5617566 -0.1285625 20.34301758 -0.16479492 C22.65067648 -0.17989676 24.95830661 -0.20037969 27.26586914 -0.22631836 C30.57966199 -0.26263975 33.89307592 -0.27971236 37.20703125 -0.29296875 C38.2414888 -0.30845261 39.27594635 -0.32393646 40.3417511 -0.33988953 C41.3025206 -0.34011612 42.2632901 -0.34034271 43.25317383 -0.34057617 C44.09922684 -0.34723801 44.94527985 -0.35389984 45.81697083 -0.36076355 C48.53650837 0.08866243 49.34800347 0.8265317 51 3 C51.76143609 4.88703725 52.51356034 6.77919275 53.1875 8.69921875 C54.04218912 11.11946823 54.97781177 13.49452333 55.9375 15.875 C57.27786689 19.20560865 58.61151161 22.53864211 59.9375 25.875 C61.39125514 29.52074531 62.90416227 33.13707298 64.4375 36.75 C66.30782903 41.20207156 67.97424665 45.68986155 69.5625 50.25 C71.10217779 54.64359767 72.7750004 58.7087052 74.96484375 62.8046875 C76.91499319 66.94047611 78.28494415 71.30780278 79.75390625 75.6328125 C80.96328503 78.90078902 82.4299954 81.89330655 84 85 C85.03974766 87.72169239 85.98779301 90.46459974 86.9375 93.21875 C87.97038621 96.06546758 87.97038621 96.06546758 89.47265625 98.9140625 C91.08687819 102.17553393 92.26765127 105.43065849 93.4375 108.875 C94.77796504 112.70832987 96.08439999 116.41697488 98 120 C100.49001179 124.65743097 102.05935244 129.64360161 103.75390625 134.6328125 C104.96348773 137.90133676 106.41252255 140.90124402 108 144 C108.64668589 145.53269647 109.27282817 147.0742743 109.875 148.625 C111.34072358 152.35897263 112.86746649 156.05869865 114.4375 159.75 C116.30782903 164.20207156 117.97424665 168.68986155 119.5625 173.25 C121.10217779 177.64359767 122.7750004 181.7087052 124.96484375 185.8046875 C126.91499319 189.94047611 128.28494415 194.30780278 129.75390625 198.6328125 C130.96348773 201.90133676 132.41252255 204.90124402 134 208 C134.64668589 209.53269647 135.27282817 211.0742743 135.875 212.625 C137.3740932 216.43567203 138.91742688 220.22318439 140.5 224 C140.91636719 225.0003125 141.33273438 226.000625 141.76171875 227.03125 C142.57089581 228.97123287 143.38576377 230.90885445 144.20703125 232.84375 C144.75423828 234.15859375 144.75423828 234.15859375 145.3125 235.5 C145.63863281 236.2734375 145.96476563 237.046875 146.30078125 237.84375 C147 240 147 240 147 244 C149.77681641 242.6115918 149.81438398 241.22190201 150.8125 238.3125 C151.15925781 237.31863281 151.50601563 236.32476562 151.86328125 235.30078125 C152.23839844 234.21152344 152.61351562 233.12226563 153 232 C153.83082659 229.66577292 154.6642235 227.33245933 155.5 225 C155.92152344 223.81792969 156.34304687 222.63585937 156.77734375 221.41796875 C158.18534804 217.48185453 159.61023667 213.55217001 161.04296875 209.625 C161.67306375 207.89673942 162.30073273 206.16759211 162.92578125 204.4375 C164.91238701 198.94367666 166.94394088 193.46810617 169 188 C172.69322497 178.17471445 176.25178418 168.30462969 179.77734375 158.41796875 C181.18534804 154.48185453 182.61023667 150.55217001 184.04296875 146.625 C184.67306375 144.89673942 185.30073273 143.16759211 185.92578125 141.4375 C187.89004409 136.00546449 189.90103727 130.59275095 191.9375 125.1875 C195.07137842 116.86399777 198.05865385 108.49060113 201.0234375 100.10546875 C202.73616528 95.31668188 204.56602392 90.61580962 206.5625 85.9375 C208.46210441 81.44699782 209.99072827 76.97880959 211.32421875 72.29296875 C212.14472521 69.50893817 213.14394063 66.82391962 214.1875 64.1171875 C215.13393628 61.65099297 216.03702534 59.17084026 216.9375 56.6875 C217.2778125 55.75164062 217.618125 54.81578125 217.96875 53.8515625 C218.64051728 51.99402419 219.30743393 50.13472224 219.96875 48.2734375 C221.70000521 43.42871526 223.54144809 38.66942392 225.5625 33.9375 C227.46158585 29.44822366 228.98914741 24.98081243 230.32421875 20.296875 C232.36416719 13.36340862 235.32253505 6.69366238 238 0 C245.59 0 253.18 0 261 0 C260.26473646 3.67631768 259.71066425 5.95305162 258.1875 9.1875 C254.69492448 16.8361152 251.76122977 24.6252539 249 32.5625 C247.17341507 37.80852926 245.26847809 42.93836815 242.92578125 47.98046875 C241.12030324 51.91900095 239.57748398 55.96606496 238 60 C237.61972656 60.96550781 237.23945313 61.93101562 236.84765625 62.92578125 C234.11862461 69.92709884 231.56386885 76.97510984 229.14306641 84.08813477 C227.70650932 88.24490759 225.98087894 92.06501076 224 96 C223.29618843 97.98723268 222.6288189 99.98777953 222 102 C220.67266289 106.24747875 219.00923751 110.03291214 217 114 C216.16089945 116.07276248 215.34879994 118.15663753 214.5625 120.25 C213.10466942 124.10283796 211.62830649 127.93987087 210.0625 131.75 C208.22186555 136.30314838 206.61157333 140.92491131 205 145.5625 C203.17180113 150.81380637 201.26000828 155.94610917 198.921875 160.99609375 C195.5097621 168.41310187 192.88987534 176.12808446 190.21142578 183.83007812 C188.69114538 188.16167832 187.01814919 192.33164043 185.06640625 196.48828125 C183.20777784 200.86592986 181.71718872 205.3832231 180.19335938 209.88671875 C178.74348337 214.11584767 177.04047855 218.01129859 175 222 C174.16089945 224.07276248 173.34879994 226.15663753 172.5625 228.25 C171.10466942 232.10283796 169.62830649 235.93987087 168.0625 239.75 C166.22186555 244.30314838 164.61157333 248.92491131 163 253.5625 C161.17180113 258.81380637 159.26000828 263.94610917 156.921875 268.99609375 C154.18554206 274.94413951 151.96176212 281.07392207 149.83398438 287.26000977 C147.35496561 294.45779368 144.70861576 301.32120966 141 308 C138.69 308 136.38 308 134 308 C129.90287526 300.12454698 126.21108571 292.2957469 123.11328125 283.9609375 C120.94987632 278.20703947 118.37620429 272.71086533 115.5625 267.25 C113.06713158 262.32815369 111.12367749 257.26303139 109.18359375 252.1015625 C106.97295233 246.30866055 104.40097338 240.75893742 101.5625 235.25 C99.07710371 230.35521342 97.17766978 225.31351251 95.2578125 220.17578125 C93.76607996 216.40938823 91.98427689 212.86239843 90.12109375 209.26953125 C88.77840865 206.55141262 87.76007921 203.78259573 86.74609375 200.9296875 C85.6837664 198.1820974 84.31750496 195.61576719 82.96875 193 C81.70775732 190.39666026 80.75858152 187.71953118 79.78125 185 C78.9700774 182.92339815 78.02144322 180.98098079 77 179 C75.31747031 175.73691212 74.02142158 172.45091223 72.78125 169 C71.9700774 166.92339815 71.02144322 164.98098079 70 163 C68.31747031 159.73691212 67.02142158 156.45091223 65.78125 153 C64.9700774 150.92339815 64.02144322 148.98098079 63 147 C61.36722444 143.82070872 60.06413828 140.63430237 58.84765625 137.27734375 C57.78831783 134.43128706 56.65211093 131.62227502 55.5 128.8125 C55.0978125 127.82894531 54.695625 126.84539062 54.28125 125.83203125 C53.07038928 123.00315677 53.07038928 123.00315677 51.49609375 120.52734375 C49.81270742 117.68360758 48.70428582 114.84966772 47.5625 111.75 C44.90972942 104.71025957 42.00765467 97.93639054 38.5625 91.25 C36.06713158 86.32815369 34.12367749 81.26303139 32.18359375 76.1015625 C29.93379174 70.20604171 27.29903769 64.55807253 24.4375 58.9375 C22.60814855 55.32899271 21.09941512 51.73733745 19.74609375 47.9296875 C18.6837664 45.1820974 17.31750496 42.61576719 15.96875 40 C14.70775732 37.39666026 13.75858152 34.71953118 12.78125 32 C11.9700774 29.92339815 11.02144322 27.98098079 10 26 C8.66660446 23.41371582 7.53684014 20.86636378 6.5625 18.125 C5.08576538 13.97373489 3.07874541 10.16947527 0.98828125 6.296875 C0 4 0 4 0 0 Z " fill="#FAFAFB" transform="translate(92,259)"/>
<path d="M0 0 C5.875 0.875 5.875 0.875 7 2 C8.4887186 2.08669432 9.981445 2.10703494 11.47265625 2.09765625 C12.82133789 2.09282227 12.82133789 2.09282227 14.19726562 2.08789062 C15.61555664 2.07532227 15.61555664 2.07532227 17.0625 2.0625 C18.01189453 2.05798828 18.96128906 2.05347656 19.93945312 2.04882812 C22.29303065 2.0370011 24.64648477 2.02052025 27 2 C27 2.66 27 3.32 27 4 C27.61875 4.28875 28.2375 4.5775 28.875 4.875 C31 6 31 6 33 8 C33.125 10.625 33.125 10.625 33 13 C33.66 13 34.32 13 35 13 C35.70105843 14.65249487 36.35800351 16.32367583 37 18 C37.5878125 19.4540625 37.5878125 19.4540625 38.1875 20.9375 C39.8591483 26.74291425 38.60648938 33.09082648 38 39 C38.66 39 39.32 39 40 39 C43 44.75 43 44.75 43 47 C47.79872101 49.23940314 52.82855847 50.0560864 58 51 C57.731875 52.051875 57.46375 53.10375 57.1875 54.1875 C56.56614641 58.11471685 56.56614641 58.11471685 59.3125 60.8125 C60.199375 61.534375 61.08625 62.25625 62 63 C64.7082444 65.7082444 64.29279059 67.34501484 64.4375 71.125 C64.88886006 78.28341225 65.76778292 83.81032127 71 89 C71.6875 91.25 71.6875 91.25 72 94 C72.2165625 95.6396875 72.2165625 95.6396875 72.4375 97.3125 C71.84640227 102.29460943 69.52584678 105.48328754 66 109 C65.34 109 64.68 109 64 109 C62.06628154 112.28264303 61.775727 114.9208723 61.5 118.6875 C60.32075726 126.38065501 55.96042737 129.4861091 50 134 C48.52990668 135.21507713 47.07040068 136.4431513 45.625 137.6875 C45.01914062 138.18636719 44.41328125 138.68523437 43.7890625 139.19921875 C40.69830656 142.31021982 38.20125965 144.90660731 37.76464844 149.44799805 C37.79341753 153.29106966 38.00762327 157.11017087 38.24414062 160.9453125 C38.53710529 169.05988086 38.53710529 169.05988086 35.93359375 172.65234375 C32.3415273 175.52695352 30.54690875 175.64579466 26 175.5625 C21.31547393 175.5103037 21.31547393 175.5103037 17.1171875 177.19140625 C16.04287858 178.43125334 15.01654916 179.71237106 14 181 C11.8125 181.1875 11.8125 181.1875 10 180 C7.84605549 174.75075745 7.37000474 169.42363271 6.87695312 163.83398438 C6.42221445 159.52011212 5.62615869 156.48179936 3 153 C1.0741837 151.83134845 1.0741837 151.83134845 -0.99609375 152.10546875 C-5.80260883 152.26696766 -8.22279238 151.705008 -11.859375 148.40625 C-13.29230186 146.8340617 -14.65267767 145.23109533 -15.98022461 143.5690918 C-19.90117926 138.70842273 -24.59150574 134.92090567 -31 134 C-33.24707241 133.7801777 -35.49771238 133.59516013 -37.75 133.4375 C-38.92046875 133.35371094 -40.0909375 133.26992188 -41.296875 133.18359375 C-42.18890625 133.12300781 -43.0809375 133.06242188 -44 133 C-44 131.68 -44 130.36 -44 129 C-43.34 129 -42.68 129 -42 129 C-42.08378906 127.9378125 -42.16757812 126.875625 -42.25390625 125.78125 C-43.17142126 113.4914927 -43.3319723 103.73180957 -36 93 C-33.9453125 92.09375 -33.9453125 92.09375 -32 92 C-30.8553125 92.4640625 -30.8553125 92.4640625 -29.6875 92.9375 C-26.16124442 94.33160104 -23.75752491 94.54654908 -20 94 C-17.64677204 91.09587454 -17.64677204 91.09587454 -16 88 C-15.34 88 -14.68 88 -14 88 C-13.13396357 84.24486603 -12.83663304 80.72663242 -12.8125 76.875 C-12.79832031 75.84117187 -12.78414063 74.80734375 -12.76953125 73.7421875 C-12.79591855 70.78279966 -12.79591855 70.78279966 -15 68 C-16.72817867 67.33598504 -18.48376056 66.74240143 -20.25 66.1875 C-26.23417454 63.83449933 -30.22431422 60.46841041 -34.75 55.9375 C-35.37036133 55.32350342 -35.99072266 54.70950684 -36.62988281 54.0769043 C-41 49.52973691 -41 49.52973691 -41 45 C-40.34 45 -39.68 45 -39 45 C-39.26167315 39.66827751 -39.26167315 39.66827751 -42.5625 35.6875 C-43.366875 35.130625 -44.17125 34.57375 -45 34 C-45 33.34 -45 32.68 -45 32 C-44.360625 31.71125 -43.72125 31.4225 -43.0625 31.125 C-40.84793921 30.17176549 -40.84793921 30.17176549 -40 28 C-38.35 28.33 -36.7 28.66 -35 29 C-35 27.35 -35 25.7 -35 24 C-34.236875 23.814375 -33.47375 23.62875 -32.6875 23.4375 C-28.93365918 21.42963165 -28.59797023 18.86176139 -27 15 C-23.553777 11.46063584 -20.91060765 10.28330429 -16 10 C-14.45631451 10.2151478 -12.91465613 10.44519346 -11.375 10.6875 C-7.80466511 11.17361671 -7.80466511 11.17361671 -4.625 9.5 C-2.62656059 6.42547783 -1.31671092 3.4234484 0 0 Z " fill="#FE5556" transform="translate(456,430)"/>
<path d="M0 0 C6.24022498 0.90065103 10.70563107 5.22390019 15.35546875 9.1640625 C18.17218546 11.35603215 19.98471503 12.37251448 23.375 13.25 C29.59148923 14.86674262 32.35975168 19.74133019 35.5 25 C37.18273419 27.83845908 37.18273419 27.83845908 40.125 28 C42.39172888 27.79605006 42.39172888 27.79605006 43.4375 26.5625 C46.61295231 26.28023757 48.76981447 26.22865724 51.6484375 27.66796875 C53.4375 29.5625 53.4375 29.5625 53.58203125 32.56640625 C53.47246094 33.74074219 53.36289062 34.91507813 53.25 36.125 C53.01686752 42.99181115 54.46764493 46.01854018 58.74609375 51.23046875 C61.36084582 54.83556571 61.80471953 58.20334563 62.4375 62.5625 C63.40171875 62.62308594 64.3659375 62.68367188 65.359375 62.74609375 C66.62265625 62.82988281 67.8859375 62.91367188 69.1875 63 C70.44046875 63.08121094 71.6934375 63.16242188 72.984375 63.24609375 C75.62067553 63.48765522 77.91787294 63.80533934 80.4375 64.5625 C80.4375 65.2225 80.4375 65.8825 80.4375 66.5625 C81.05625 66.68625 81.675 66.81 82.3125 66.9375 C84.4375 67.5625 84.4375 67.5625 86.4375 69.5625 C86.6328125 71.9453125 86.6328125 71.9453125 86.5625 74.6875 C86.54445313 75.59757812 86.52640625 76.50765625 86.5078125 77.4453125 C86.48460937 78.14398438 86.46140625 78.84265625 86.4375 79.5625 C85.7775 79.5625 85.1175 79.5625 84.4375 79.5625 C84.19257812 80.305 83.94765625 81.0475 83.6953125 81.8125 C80.37495228 89.0719211 72.1193495 93.67487847 65.4375 97.5625 C65.83388895 101.18545659 65.83388895 101.18545659 68 103.9375 C70.3088299 106.54748162 69.62603244 109.23176021 69.4375 112.5625 C68.633125 112.830625 67.82875 113.09875 67 113.375 C66.154375 113.766875 65.30875 114.15875 64.4375 114.5625 C64.1075 115.5525 63.7775 116.5425 63.4375 117.5625 C60.90738255 118.45951455 58.46289416 119.1952053 55.875 119.875 C48.88119105 121.86193918 43.64223394 124.35776606 38.4375 129.5625 C38.20386119 131.41141946 38.02446365 133.26738031 37.875 135.125 C37.79121094 136.13691406 37.70742188 137.14882813 37.62109375 138.19140625 C37.56050781 138.97386719 37.49992188 139.75632812 37.4375 140.5625 C38.0975 140.5625 38.7575 140.5625 39.4375 140.5625 C41.5090868 143.6698802 41.96195361 146.74577842 41.90625 150.45703125 C41.03947153 154.35031121 38.25342709 156.88066468 35.4375 159.5625 C35.77136719 160.16835938 36.10523438 160.77421875 36.44921875 161.3984375 C37.74100121 164.22708368 37.43241817 165.65427764 36.4375 168.5625 C35.4475 169.2225 34.4575 169.8825 33.4375 170.5625 C34.11388011 173.67065785 34.11388011 173.67065785 36.5 174.8125 C38.4375 176.5625 38.4375 176.5625 38.6875 180.25 C38.605 181.343125 38.5225 182.43625 38.4375 183.5625 C37.7775 183.5625 37.1175 183.5625 36.4375 183.5625 C36.4375 184.2225 36.4375 184.8825 36.4375 185.5625 C33.15258627 187.75244248 31.60654361 187.91527339 27.75 188.1875 C26.25919922 188.29964844 26.25919922 188.29964844 24.73828125 188.4140625 C23.59939453 188.48753906 23.59939453 188.48753906 22.4375 188.5625 C22.37691406 189.46613281 22.31632813 190.36976563 22.25390625 191.30078125 C22.17011719 192.48027344 22.08632813 193.65976562 22 194.875 C21.87818359 196.63263672 21.87818359 196.63263672 21.75390625 198.42578125 C21.4375 201.5625 21.4375 201.5625 20.4375 204.5625 C19.7775 204.5625 19.1175 204.5625 18.4375 204.5625 C18.128125 205.18125 17.81875 205.8 17.5 206.4375 C16.8125 207.8125 16.125 209.1875 15.4375 210.5625 C14.28749512 210.54678955 14.28749512 210.54678955 13.11425781 210.53076172 C9.63870526 210.48917301 6.16320509 210.46316449 2.6875 210.4375 C0.87765625 210.41236328 0.87765625 210.41236328 -0.96875 210.38671875 C-2.70898438 210.37705078 -2.70898438 210.37705078 -4.484375 210.3671875 C-6.08684082 210.35147705 -6.08684082 210.35147705 -7.72167969 210.33544922 C-10.61734401 210.56688337 -12.20199447 210.89255023 -14.5625 212.5625 C-15.69961228 214.31602557 -15.69961228 214.31602557 -16.4140625 216.40625 C-16.70796875 217.15777344 -17.001875 217.90929687 -17.3046875 218.68359375 C-17.74167969 219.86115234 -17.74167969 219.86115234 -18.1875 221.0625 C-18.77941661 222.6162811 -19.37558844 224.16844966 -19.9765625 225.71875 C-20.36255615 226.75225586 -20.36255615 226.75225586 -20.75634766 227.80664062 C-21.5625 229.5625 -21.5625 229.5625 -23.5625 231.5625 C-26.6875 231.6875 -26.6875 231.6875 -29.5625 231.5625 C-29.35438712 237.15701646 -29.35438712 237.15701646 -26.6875 241.8125 C-25.98625 242.39 -25.285 242.9675 -24.5625 243.5625 C-21.71730051 246.20694332 -21.34735905 248.38620241 -21.19140625 252.1171875 C-21.13755547 254.78579263 -21.12498946 257.451978 -21.12304688 260.12109375 C-21.00159609 265.7413333 -20.45897521 269.19149693 -16.5625 273.5625 C-11.72949362 277.58134401 -5.9872946 277.31418368 0.01953125 277.734375 C1.18935547 277.83492188 1.18935547 277.83492188 2.3828125 277.9375 C3.08937988 277.98648437 3.79594727 278.03546875 4.52392578 278.0859375 C6.98552225 278.69898117 7.92705495 279.54002981 9.4375 281.5625 C9.89752362 287.08278344 9.17922514 291.33732458 7.4375 296.5625 C6.7775 296.5625 6.1175 296.5625 5.4375 296.5625 C5.1075 297.5525 4.7775 298.5425 4.4375 299.5625 C0.43097838 302.23351441 -2.84935449 302.27863165 -7.5625 301.5625 C-10.3125 299.5625 -10.3125 299.5625 -12.5625 297.5625 C-15.19028044 297.06114801 -15.19028044 297.06114801 -17.5625 297.5625 C-18.2225 298.2225 -18.8825 298.8825 -19.5625 299.5625 C-23.97435126 300.2028425 -26.64017879 299.84951915 -30.16796875 297.2265625 C-31.3761596 296.23049676 -32.57006798 295.21688453 -33.75 294.1875 C-41.51923568 287.58026778 -41.51923568 287.58026778 -51.5625 286.5625 C-53.05993119 288.05993119 -52.89452693 289.55074239 -53.125 291.625 C-53.269375 292.924375 -53.41375 294.22375 -53.5625 295.5625 C-50.24186551 297.53586035 -47.5809389 297.83771376 -43.75 298 C-38.65359355 298.37381954 -34.89004282 298.77363907 -30.5625 301.5625 C-29.3125 304.3125 -29.3125 304.3125 -29.5625 307.5625 C-30.9765594 310.12323302 -32.66430464 312.34246529 -34.5625 314.5625 C-33.94375 314.706875 -33.325 314.85125 -32.6875 315 C-30.5625 315.5625 -30.5625 315.5625 -28.5625 316.5625 C-26.10809388 324.25706318 -25.08594481 332.36128903 -24.03515625 340.34375 C-23.63571351 343.06392204 -23.1077375 345.65029789 -22.4375 348.3125 C-21.2451728 353.3165189 -20.19776656 359.83303312 -22.5625 364.5625 C-23.2225 364.5625 -23.8825 364.5625 -24.5625 364.5625 C-24.96275391 365.66658203 -24.96275391 365.66658203 -25.37109375 366.79296875 C-26.53546162 369.49964685 -27.87302261 371.52037683 -29.625 373.875 C-31.76570592 376.95577725 -32.85729158 378.93228758 -32.9375 382.6875 C-33.85531298 388.37794047 -37.08393337 390.25617564 -41.5625 393.5625 C-43.14955976 394.74501512 -44.73294047 395.93248485 -46.3125 397.125 C-47.02921875 397.64191406 -47.7459375 398.15882813 -48.484375 398.69140625 C-51.80936343 401.68514583 -54.27919543 404.37379404 -54.87304688 408.96166992 C-54.99640953 412.72731482 -54.9570421 416.47789552 -54.875 420.24414062 C-54.93511549 427.52312424 -56.6726907 432.11301374 -61.5625 437.5625 C-65.23068245 440.54217502 -68.29097462 440.9611171 -72.9375 441.375 C-78.55868351 442.10214972 -81.02812662 443.34062662 -84.953125 447.265625 C-87.43057361 449.26201563 -89.50860218 449.51786327 -92.6328125 449.29296875 C-96.56994738 447.80259583 -98.59833686 444.1170236 -100.5625 440.5625 C-101.70327657 437.14017028 -101.66065117 434.47576783 -101.625 430.875 C-101.61597656 429.69550781 -101.60695313 428.51601563 -101.59765625 427.30078125 C-101.58605469 426.39714844 -101.57445312 425.49351562 -101.5625 424.5625 C-102.50351562 424.59988281 -103.44453125 424.63726563 -104.4140625 424.67578125 C-107.5625 424.5625 -107.5625 424.5625 -109.9375 422.75 C-112.34143853 420.05327409 -114.3513497 417.06968138 -116.4375 414.125 C-120.26346551 408.7657553 -124.11081051 403.71306316 -130.5625 401.5625 C-133.90027068 401.1984451 -137.23543835 400.84743487 -140.58203125 400.57617188 C-145.36682425 400.07274393 -148.47208529 399.35036239 -151.5625 395.5625 C-152.12500069 392.6773308 -151.99010361 389.92305934 -151.8125 387 C-151.46342494 381.20773817 -151.46342494 381.20773817 -152.5625 375.5625 C-153.00160859 369.19542551 -151.89830528 364.46242196 -149.5625 358.5625 C-149.2840625 357.80710937 -149.005625 357.05171875 -148.71875 356.2734375 C-146.43255705 350.53824658 -143.28022325 345.61808666 -138.5625 341.5625 C-134.83684444 340.1802888 -133.15207769 340.97640753 -129.5625 342.5625 C-127.23501306 343.24929942 -124.90263344 343.92011043 -122.5625 344.5625 C-122.5625 340.2725 -122.5625 335.9825 -122.5625 331.5625 C-123.84125 331.046875 -125.12 330.53125 -126.4375 330 C-135.03848374 326.15183616 -143.95145039 320.2624458 -149.5625 312.5625 C-150.44848553 307.51238251 -149.124649 303.34658131 -147.5625 298.5625 C-148.284375 298.665625 -149.00625 298.76875 -149.75 298.875 C-152.5625 298.5625 -152.5625 298.5625 -155.375 296.5 C-157.5625 293.5625 -157.5625 293.5625 -158.5 290.3125 C-157.17549602 285.01448408 -153.98859425 282.86427322 -149.84765625 279.48046875 C-147.49941039 277.76764663 -147.49941039 277.76764663 -146.5625 275.5625 C-145.9025 275.5625 -145.2425 275.5625 -144.5625 275.5625 C-144.8925 272.5925 -145.2225 269.6225 -145.5625 266.5625 C-146.2225 266.5625 -146.8825 266.5625 -147.5625 266.5625 C-147.68625 265.923125 -147.81 265.28375 -147.9375 264.625 C-148.14375 263.944375 -148.35 263.26375 -148.5625 262.5625 C-149.2225 262.2325 -149.8825 261.9025 -150.5625 261.5625 C-150.5625 262.2225 -150.5625 262.8825 -150.5625 263.5625 C-153.375 263.8125 -153.375 263.8125 -156.5625 263.5625 C-159.30074561 261.07897492 -159.55906312 259.60454595 -159.86328125 255.8828125 C-159.872914 254.48440272 -159.87659567 253.08594205 -159.875 251.6875 C-159.86297948 246.34554606 -159.86297948 246.34554606 -161.98828125 241.6015625 C-162.54902344 241.17617188 -163.10976563 240.75078125 -163.6875 240.3125 C-166.5625 237.5625 -166.5625 237.5625 -166.875 234.73046875 C-166.59622323 229.92737723 -166.10799851 226.47752976 -163.625 222.3125 C-161.5625 220.5625 -161.5625 220.5625 -159.5625 220.5625 C-159.5625 219.9025 -159.5625 219.2425 -159.5625 218.5625 C-158.1703125 217.9746875 -158.1703125 217.9746875 -156.75 217.375 C-153.13357011 215.31859869 -152.25408491 214.30707668 -150.5625 210.5625 C-150.18948402 207.73751116 -150.23342223 204.96932865 -150.3125 202.125 C-150.31765625 201.38701172 -150.3228125 200.64902344 -150.328125 199.88867188 C-150.38803753 195.67607214 -150.81716114 191.71675303 -151.5625 187.5625 C-152.54148462 176.39244594 -150.48528006 164.67533115 -144.0546875 155.2890625 C-141.75848612 152.63220122 -139.05418728 150.51236048 -136.359375 148.2734375 C-132.25516746 144.36551815 -131.25586078 138.93261376 -130.28515625 133.5546875 C-129.18206915 130.5137447 -127.9272958 128.79042659 -125.5625 126.5625 C-122.09840297 126.06710863 -118.97105355 126.03042173 -115.49414062 126.11328125 C-111.4923782 126.07577645 -109.82428651 125.7829896 -106.71484375 123.1640625 C-106.00457031 122.30554688 -105.29429687 121.44703125 -104.5625 120.5625 C-102.03127858 118.4109618 -99.98249428 116.73605646 -96.90625 115.46484375 C-95.74609375 114.52318359 -95.74609375 114.52318359 -94.5625 113.5625 C-94.26224613 109.91066235 -94.44448499 106.617794 -94.7578125 102.98632812 C-94.97590028 98.84629512 -94.87488807 96.37845135 -92.203125 93.078125 C-89.5625 90.5625 -89.5625 90.5625 -87.3125 89.625 C-86.735 89.274375 -86.1575 88.92375 -85.5625 88.5625 C-85.43875 87.44875 -85.315 86.335 -85.1875 85.1875 C-84.5625 81.5625 -84.5625 81.5625 -81.625 79.4375 C-80.614375 78.81875 -79.60375 78.2 -78.5625 77.5625 C-77.15059436 74.95812767 -77.15059436 74.95812767 -76.5625 72.5625 C-75.9025 72.5625 -75.2425 72.5625 -74.5625 72.5625 C-74.8925 70.9125 -75.2225 69.2625 -75.5625 67.5625 C-77.5425 67.0675 -77.5425 67.0675 -79.5625 66.5625 C-79.5625 65.9025 -79.5625 65.2425 -79.5625 64.5625 C-80.820625 64.418125 -82.07875 64.27375 -83.375 64.125 C-85.98917123 63.82501314 -88.03689892 63.40436703 -90.5625 62.5625 C-92.7274902 62.46764218 -94.89543823 62.43261923 -97.0625 62.4375 C-98.2071875 62.43492187 -99.351875 62.43234375 -100.53125 62.4296875 C-103.60929859 62.42565592 -103.60929859 62.42565592 -106.5625 63.5625 C-108.9375 63.80078125 -108.9375 63.80078125 -111.5625 63.875 C-112.42875 63.91238281 -113.295 63.94976562 -114.1875 63.98828125 C-116.5625 63.5625 -116.5625 63.5625 -118.3359375 61.71875 C-120.10123866 58.61541802 -120.25440487 57.09121486 -119.5625 53.5625 C-117.82958362 51.65671362 -115.96377095 49.96691178 -114.0625 48.23046875 C-112.26443925 46.59539307 -112.26443925 46.59539307 -112.5 43.8125 C-113.58905972 41.36417289 -113.58905972 41.36417289 -115.5625 38.5625 C-116.10923721 33.31382275 -116.10923721 33.31382275 -114.3515625 30.8984375 C-112.00359359 29.14515067 -110.5328236 29.161264 -107.625 29.1875 C-106.77035156 29.17976563 -105.91570312 29.17203125 -105.03515625 29.1640625 C-102.5625 29.5625 -102.5625 29.5625 -100.75488281 31.06030273 C-97.99966813 32.94814638 -96.33098124 32.9628324 -93.01171875 32.99609375 C-91.92729492 33.00729248 -90.84287109 33.01849121 -89.72558594 33.0300293 C-88.0051709 33.01516479 -88.0051709 33.01516479 -86.25 33 C-84.49671387 32.99190308 -84.49671387 32.99190308 -82.70800781 32.98364258 C-68.48832279 32.73443363 -56.06849115 30.15253977 -45.4921875 20.0859375 C-42.2509735 17.52708435 -39.29827931 17.44946935 -35.2890625 17.7734375 C-25.90862803 18.38769114 -25.90862803 18.38769114 -17.43603516 15.04736328 C-15.47889924 13.12014536 -13.72630349 11.1359598 -12 9 C-5.04192493 0.40567212 -5.04192493 0.40567212 0 0 Z M-3.2734375 11.06640625 C-4.09714844 12.08541016 -4.09714844 12.08541016 -4.9375 13.125 C-5.53691406 13.84945312 -6.13632812 14.57390625 -6.75390625 15.3203125 C-7.64916016 16.43019531 -7.64916016 16.43019531 -8.5625 17.5625 C-9.66151573 18.87931612 -10.76526982 20.19220062 -11.875 21.5 C-12.34550781 22.06589844 -12.81601562 22.63179687 -13.30078125 23.21484375 C-14.5625 24.5625 -14.5625 24.5625 -16.5625 25.5625 C-18.24805098 25.6092043 -19.93531486 25.60008901 -21.62109375 25.5625 C-35.29009061 25.00883633 -35.29009061 25.00883633 -47 30.875 C-48.52816939 32.43032588 -50.04989364 33.99203438 -51.5625 35.5625 C-61.91716441 42.49112942 -76.20818744 41.77324519 -88.1875 42 C-89.23107666 42.03448242 -90.27465332 42.06896484 -91.34985352 42.10449219 C-98.85006696 42.14597364 -98.85006696 42.14597364 -102.6484375 39.03515625 C-103.28007812 38.21917969 -103.91171875 37.40320313 -104.5625 36.5625 C-105.2225 36.5625 -105.8825 36.5625 -106.5625 36.5625 C-105.34242056 39.2530528 -105.34242056 39.2530528 -103.5625 41.5625 C-103.38749449 45.41262111 -103.75806855 48.80848656 -104.5625 52.5625 C-104.01424561 52.62719482 -103.46599121 52.69188965 -102.90112305 52.75854492 C-82.34675418 55.27096122 -82.34675418 55.27096122 -73.5625 60.5625 C-72.49128906 61.12066406 -71.42007813 61.67882812 -70.31640625 62.25390625 C-67.5625 64.5625 -67.5625 64.5625 -66.80078125 68.09375 C-66.83751953 70.05828125 -66.83751953 70.05828125 -66.875 72.0625 C-66.87113281 73.3721875 -66.86726563 74.681875 -66.86328125 76.03125 C-67.71347788 80.32498048 -69.02614806 81.17869519 -72.5625 83.5625 C-72.5625 84.2225 -72.5625 84.8825 -72.5625 85.5625 C-73.8825 85.5625 -75.2025 85.5625 -76.5625 85.5625 C-76.48 86.47 -76.3975 87.3775 -76.3125 88.3125 C-76.5625 91.5625 -76.5625 91.5625 -78.1875 93.625 C-80.5625 95.5625 -80.5625 95.5625 -83.8125 97.375 C-85.52254918 98.57607946 -85.52254918 98.57607946 -86.5625 100.5625 C-86.67788267 103.96585582 -86.67788267 103.96585582 -86.375 107.75 C-86.06459754 113.2723542 -86.54886412 116.66399544 -90.3125 120.9375 C-92.01285652 122.53375306 -93.7668922 124.07420273 -95.5625 125.5625 C-97.00689453 126.81933594 -97.00689453 126.81933594 -98.48046875 128.1015625 C-104.1030671 132.68401652 -108.24640338 135.0440641 -115.38671875 136.0234375 C-118.70501449 136.84556463 -120.13431972 138.48986837 -122.14453125 141.17578125 C-124.28723028 144.78236282 -126.04659165 148.57370491 -127.80615234 152.37817383 C-129.67276019 156.2591326 -131.56833261 158.77334479 -134.875 161.5 C-139.76405841 165.82384935 -139.7756473 171.02806473 -140.2109375 177.171875 C-140.5625 180.5625 -140.5625 180.5625 -141.58105469 182.44824219 C-142.80075558 185.07575704 -142.7313648 186.89558523 -142.6171875 189.78125 C-142.58963379 190.7909082 -142.56208008 191.80056641 -142.53369141 192.84082031 C-142.50194824 193.90397461 -142.47020508 194.96712891 -142.4375 196.0625 C-142.19704139 213.4117181 -142.19704139 213.4117181 -146.5625 220.5625 C-149.5625 223.1875 -149.5625 223.1875 -152.5625 224.5625 C-155.71134038 225.89841486 -155.71134038 225.89841486 -157.5625 228.5625 C-158.14664702 231.93556618 -158.14664702 231.93556618 -157.5625 235.5625 C-156.01805307 236.68865922 -154.47159098 237.81274003 -152.8984375 238.8984375 C-149.96519179 242.55212952 -151.1813314 248.13670904 -151.5625 252.5625 C-150.510625 252.748125 -149.45875 252.93375 -148.375 253.125 C-144.32867613 254.25764238 -142.74689769 256.37582407 -140.5078125 259.80859375 C-138.27191905 263.95700763 -138.34512684 267.97842896 -138.3125 272.5625 C-138.291875 273.28695313 -138.27125 274.01140625 -138.25 274.7578125 C-138.21085439 280.06204205 -138.21085439 280.06204205 -139.91015625 282.48046875 C-141.5625 283.5625 -141.5625 283.5625 -144.25 284.875 C-145.3946875 285.7103125 -145.3946875 285.7103125 -146.5625 286.5625 C-146.97996608 289.68885209 -146.97996608 289.68885209 -146.5625 292.5625 C-145.593125 292.913125 -144.62375 293.26375 -143.625 293.625 C-140.5625 295.5625 -140.5625 295.5625 -139.6875 299.25 C-139.64625 300.343125 -139.605 301.43625 -139.5625 302.5625 C-140.2225 302.5625 -140.8825 302.5625 -141.5625 302.5625 C-141.28128175 308.06187913 -137.95559771 310.89544637 -134.25 314.5625 C-133.31571167 315.49787598 -133.31571167 315.49787598 -132.36254883 316.45214844 C-127.5265655 321.08635135 -123.20076985 323.70023072 -116.79296875 325.765625 C-114.5625 326.5625 -114.5625 326.5625 -113.5625 328.5625 C-113.46529573 330.49800864 -113.43272086 332.43705792 -113.4375 334.375 C-113.43363281 335.93154297 -113.43363281 335.93154297 -113.4296875 337.51953125 C-113.55173825 340.31592942 -113.92886645 342.84189879 -114.5625 345.5625 C-115.2225 345.5625 -115.8825 345.5625 -116.5625 345.5625 C-117.119375 346.5525 -117.67625 347.5425 -118.25 348.5625 C-120.5625 351.5625 -120.5625 351.5625 -124 352.0625 C-127.23204518 351.60887962 -129.57360664 350.77421353 -132.5625 349.5625 C-134.69157319 349.32348289 -134.69157319 349.32348289 -136.5625 350.5625 C-144.03251335 361.9872263 -144.09352289 373.27793212 -142.5625 386.5625 C-143.2225 386.5625 -143.8825 386.5625 -144.5625 386.5625 C-144.5625 387.8825 -144.5625 389.2025 -144.5625 390.5625 C-143.716875 390.59988281 -142.87125 390.63726563 -142 390.67578125 C-129.72207463 391.38734283 -123.23283122 393.65692723 -114.5625 402.5625 C-113.73457795 403.69724022 -112.91959668 404.84167949 -112.125 406 C-108.79792396 409.32707604 -106.53505609 409.24059296 -101.96484375 409.26171875 C-98.95021721 409.6391598 -97.68832475 410.40368018 -95.5625 412.5625 C-94.8046875 414.83984375 -94.8046875 414.83984375 -94.4375 417.5 C-94.29054688 418.46808594 -94.14359375 419.43617188 -93.9921875 420.43359375 C-93.85039062 421.46613281 -93.70859375 422.49867188 -93.5625 423.5625 C-93.2376925 425.73046117 -92.90452967 427.89718911 -92.5625 430.0625 C-92.3459375 431.53203125 -92.3459375 431.53203125 -92.125 433.03125 C-91.67186366 435.78953145 -91.67186366 435.78953145 -89.5625 438.5625 C-88.5725 438.5625 -87.5825 438.5625 -86.5625 438.5625 C-85.6653125 437.3559375 -85.6653125 437.3559375 -84.75 436.125 C-82.61641412 433.76164334 -81.5525412 433.56145045 -78.30078125 433.21875 C-75.84710871 433.15721589 -73.39153227 433.14645092 -70.9375 433.19140625 C-67.31190705 432.51580386 -65.61658099 431.57768959 -63.43408203 428.56616211 C-61.63128865 424.42175726 -62.22745144 419.98188959 -62.5 415.5625 C-63.07409842 405.61146078 -63.07409842 405.61146078 -60.93359375 401.22265625 C-58.32873104 398.30023203 -55.61890685 395.58805567 -52.6875 393 C-51.93146484 392.31647461 -51.93146484 392.31647461 -51.16015625 391.61914062 C-47.04295524 387.91787169 -47.04295524 387.91787169 -44.88671875 386.32299805 C-42.10825726 384.23956836 -40.68283167 382.93779673 -39.609375 379.58984375 C-39.51140625 378.57019531 -39.4134375 377.55054688 -39.3125 376.5 C-38.59921346 369.76623541 -38.59921346 369.76623541 -36.5625 366.5625 C-35.94375 366.27375 -35.325 365.985 -34.6875 365.6875 C-31.43577833 363.96600029 -30.26193933 361.77929588 -28.5625 358.5625 C-28.04819038 353.76227685 -28.6508547 349.98946806 -30.5625 345.5625 C-31.305 344.8509375 -31.305 344.8509375 -32.0625 344.125 C-35.96517449 340.05971407 -35.6331385 334.22268562 -35.8125 328.9375 C-35.95188725 324.55430404 -35.95188725 324.55430404 -37.921875 320.82421875 C-39.44831158 319.7084663 -41.00444783 318.63366087 -42.5625 317.5625 C-43.66690787 313.88114044 -43.77934495 312.21303485 -42.5625 308.5625 C-43.22636719 308.44132812 -43.89023437 308.32015625 -44.57421875 308.1953125 C-54.87906184 306.23964885 -54.87906184 306.23964885 -57.5625 304.5625 C-58.8125 301.5625 -58.8125 301.5625 -59.5625 298.5625 C-59.8925 297.9025 -60.2225 297.2425 -60.5625 296.5625 C-60.99003683 290.36321595 -60.1052663 286.23482482 -57.5625 280.5625 C-54.93695368 277.93695368 -53.65975736 278.2342402 -50 278.1875 C-43.95698309 278.27444988 -39.82707592 279.77917912 -34.5625 282.5625 C-33.593125 282.8925 -32.62375 283.2225 -31.625 283.5625 C-29.04363917 284.81406889 -28.62098967 285.95698696 -27.5625 288.5625 C-25.62647953 290.93448957 -25.62647953 290.93448957 -22.125 290.8125 C-18.45829382 290.85059647 -18.45829382 290.85059647 -15.5625 288.5625 C-13.25 288.125 -13.25 288.125 -10.5625 288.5625 C-9.551875 289.408125 -8.54125 290.25375 -7.5 291.125 C-4.8911453 293.86612407 -4.8911453 293.86612407 -2.1875 293.375 C-1.65125 293.106875 -1.115 292.83875 -0.5625 292.5625 C-0.5625 291.9025 -0.5625 291.2425 -0.5625 290.5625 C0.0975 290.5625 0.7575 290.5625 1.4375 290.5625 C1.4375 289.2425 1.4375 287.9225 1.4375 286.5625 C0.43589844 286.53671875 -0.56570313 286.5109375 -1.59765625 286.484375 C-10.44696949 286.1585993 -16.48414603 285.92211976 -22.71484375 279.26171875 C-29.59408407 270.52061023 -29.75398172 262.33334681 -29.5625 251.5625 C-30.5525 251.2325 -31.5425 250.9025 -32.5625 250.5625 C-32.665625 249.82 -32.76875 249.0775 -32.875 248.3125 C-33.61340806 245.35886774 -34.6848192 243.909601 -36.5625 241.5625 C-37.75278338 237.99164986 -37.74648398 234.7164317 -37.75 231 C-37.76224609 230.31486328 -37.77449219 229.62972656 -37.78710938 228.92382812 C-37.79237533 227.13515888 -37.68450021 225.34701152 -37.5625 223.5625 C-35.5625 221.5625 -35.5625 221.5625 -33.1796875 221.3671875 C-32.27476562 221.39039063 -31.36984375 221.41359375 -30.4375 221.4375 C-29.52742187 221.45554687 -28.61734375 221.47359375 -27.6796875 221.4921875 C-26.98101563 221.51539063 -26.28234375 221.53859375 -25.5625 221.5625 C-25.33175781 220.69367188 -25.10101562 219.82484375 -24.86328125 218.9296875 C-23.00806068 212.37408597 -21.56084582 207.29777499 -16.5625 202.5625 C-13.85510594 201.20880297 -11.77638636 201.48415231 -8.75 201.53515625 C-7.59242188 201.54740234 -6.43484375 201.55964844 -5.2421875 201.57226562 C-2.78900342 201.60742272 -0.33587221 201.64648552 2.1171875 201.68945312 C3.27476562 201.70041016 4.43234375 201.71136719 5.625 201.72265625 C6.69105469 201.73949463 7.75710938 201.75633301 8.85546875 201.77368164 C11.60202429 201.82938402 11.60202429 201.82938402 13.4375 199.5625 C13.69538265 196.38317535 13.8039992 193.24816757 13.828125 190.06054688 C13.93969604 186.89626827 14.01570469 185.02969032 16.1796875 182.6328125 C18.62373758 181.47421437 20.4970672 181.07282594 23.1875 180.875 C23.98671875 180.80925781 24.7859375 180.74351562 25.609375 180.67578125 C26.21265625 180.63839844 26.8159375 180.60101563 27.4375 180.5625 C27.4375 179.5725 27.4375 178.5825 27.4375 177.5625 C26.6125 176.964375 25.7875 176.36625 24.9375 175.75 C22.4375 173.5625 22.4375 173.5625 22.125 170.3125 C22.2796875 168.95125 22.2796875 168.95125 22.4375 167.5625 C23.0975 167.2325 23.7575 166.9025 24.4375 166.5625 C24.56125 165.325 24.685 164.0875 24.8125 162.8125 C25.22835352 158.66139072 26.48992756 156.59676575 29.4375 153.5625 C30.30375 152.9128125 30.30375 152.9128125 31.1875 152.25 C33.34435882 149.3382406 32.61081653 146.08660273 32.4375 142.5625 C31.7775 142.5625 31.1175 142.5625 30.4375 142.5625 C28.68331397 137.08066865 28.76063698 131.55727059 31.2734375 126.3203125 C37.12366635 117.48607431 47.79041963 112.89512776 57.4375 109.5625 C56.28576645 107.09449953 55.38966435 105.51466435 53.4375 103.5625 C52.74064654 100.19437496 52.44074022 98.74317165 53.4375 95.5625 C58.33056546 90.12124878 64.94038298 86.45980303 71.30859375 82.984375 C73.68548923 81.39687049 74.99629421 80.02784238 76.4375 77.5625 C76.4375 76.2425 76.4375 74.9225 76.4375 73.5625 C72.83729492 71.76239746 68.6579957 71.69732211 64.69921875 71.16015625 C61.6615269 70.60354924 59.18325738 69.96776966 56.4375 68.5625 C55.3125 65.875 55.3125 65.875 54.4375 62.5625 C51.76739359 55.7130966 49.69635715 53.18604888 43.4375 49.5625 C41.39051586 47.51551586 41.73704307 43.25838759 41.4375 40.5625 C42.0975 40.5625 42.7575 40.5625 43.4375 40.5625 C43.1075 39.2425 42.7775 37.9225 42.4375 36.5625 C39.4675 36.5625 36.4975 36.5625 33.4375 36.5625 C32.4475 34.5825 32.4475 34.5825 31.4375 32.5625 C30.10939785 30.89166181 28.77577304 29.22520287 27.4375 27.5625 C27.02628906 26.73234375 26.61507812 25.9021875 26.19140625 25.046875 C23.90915008 21.81410235 22.05952261 21.39713813 18.3125 20.25 C12.3831108 18.18760376 8.67191086 15.63508402 4.33984375 11.13671875 C1.62095351 8.8867952 -0.5623226 8.68334863 -3.2734375 11.06640625 Z " fill="#F5F4F4" transform="translate(556.5625,172.4375)"/>
<path d="M0 0 C0.598125 0.845625 1.19625 1.69125 1.8125 2.5625 C3.79734367 5.29728639 3.79734367 5.29728639 7 5.4375 C9.90210866 5.18997987 9.90210866 5.18997987 11.84765625 4 C16.00102228 2.07030544 20.53891829 2.3560641 25 3 C28.34538305 5.42006434 29.72573855 7.45147711 31.5625 11.125 C35.36792987 15.61345574 40.37599811 15.99192419 46 17 C46 17.66 46 18.32 46 19 C49.27036728 19.14510162 52.53991007 19.23399373 55.8125 19.3125 C57.2056543 19.3753418 57.2056543 19.3753418 58.62695312 19.43945312 C61.17613951 19.48546732 63.49545922 19.48351551 66 19 C68.01381351 16.67991217 68.01381351 16.67991217 69 14 C73.29045607 12.25203642 76.60758934 11.352846 81 13 C84.77880067 15.28045269 87.53136857 17.29705285 90 21 C92.0663613 21.43214296 92.0663613 21.43214296 94.375 21.4375 C97.74918707 21.69830673 98.77310991 21.82844895 101.5625 23.9375 C103 26 103 26 103 28 C105.31 28.33 107.62 28.66 110 29 C110 29.99 110 30.98 110 32 C108.35546875 33.578125 108.35546875 33.578125 106.1875 35.25 C102.17085137 38.6339376 100.44401341 40.94595307 99 46 C98.7369221 49.88039904 98.81108255 53.28463298 100 57 C100.66 57 101.32 57 102 57 C102.85714286 63.85714286 102.85714286 63.85714286 100.4765625 67.03125 C99.19480024 68.34963404 97.90828396 69.66341185 96.6171875 70.97265625 C94.0583944 74.18041861 94.21145344 76.9823846 94 81 C93.01 81.495 93.01 81.495 92 82 C91.58190799 84.83151973 91.58190799 84.83151973 92 88 C94.4390706 90.20142332 94.4390706 90.20142332 97 92 C97 92.99 97 93.98 97 95 C96.36191406 95.06058594 95.72382812 95.12117188 95.06640625 95.18359375 C94.24011719 95.26738281 93.41382813 95.35117187 92.5625 95.4375 C91.32693359 95.55931641 91.32693359 95.55931641 90.06640625 95.68359375 C88.01337975 95.78930815 88.01337975 95.78930815 87 97 C79.99320399 97.57468989 74.19377313 97.44098507 68 94 C67.67 93.67 67.34 93.34 67 93 C65.00009484 92.80010237 65.00009484 92.80010237 62.6875 92.8125 C61.90761719 92.79832031 61.12773438 92.78414063 60.32421875 92.76953125 C57.78581392 93.02123862 56.2247231 93.79988285 54 95 C52 95 52 95 50 94 C47.06835018 90.57974188 46.04242732 88.65762353 45.75 84.125 C45.8325 83.09375 45.915 82.0625 46 81 C44.35 81 42.7 81 41 81 C41 81.66 41 82.32 41 83 C33.80217056 85.30330542 26.51961862 85.94808541 19 85 C16.46546364 83.58229153 15.6730267 82.4497891 14 80 C13.01 79.505 13.01 79.505 12 79 C12 78.34 12 77.68 12 77 C8.31183461 77.958923 5.22055447 78.88756047 1.8125 80.625 C-1 82 -1 82 -5 82 C-5 81.34 -5 80.68 -5 80 C-5.94875 80.061875 -6.8975 80.12375 -7.875 80.1875 C-8.90625 80.125625 -9.9375 80.06375 -11 80 C-11.66 79.01 -12.32 78.02 -13 77 C-15.21932277 76.49223956 -15.21932277 76.49223956 -17.7890625 76.48828125 C-19.20058594 76.43510742 -19.20058594 76.43510742 -20.640625 76.38085938 C-21.62546875 76.35830078 -22.6103125 76.33574219 -23.625 76.3125 C-24.61757813 76.27833984 -25.61015625 76.24417969 -26.6328125 76.20898438 C-29.08842906 76.12634343 -31.54368141 76.05724873 -34 76 C-33.98259766 74.02966797 -33.98259766 74.02966797 -33.96484375 72.01953125 C-33.95546172 70.28385559 -33.94636196 68.54817839 -33.9375 66.8125 C-33.92912109 65.94818359 -33.92074219 65.08386719 -33.91210938 64.19335938 C-33.89603188 59.99713231 -33.92440962 56.09063114 -35 52 C-35.66 52 -36.32 52 -37 52 C-37.495 50.515 -37.495 50.515 -38 49 C-37.07058594 48.29875 -36.14117187 47.5975 -35.18359375 46.875 C-31.39606587 43.98858259 -27.68840847 41.01154909 -24 38 C-23.17886719 37.34515625 -22.35773438 36.6903125 -21.51171875 36.015625 C-18.14033936 32.86062814 -17.05747474 31.0537035 -16.80078125 26.34765625 C-16.85862724 23.68576556 -17.00214185 21.03487276 -17.13671875 18.375 C-17 15 -17 15 -15.83203125 13.0625 C-14.25 11.8125 -14.25 11.8125 -11 10 C-8.60204619 8.18712805 -8.60204619 8.18712805 -7 6 C-6.66551741 2.832168 -6.66551741 2.832168 -7 0 C-3.98968256 -0.93423645 -3.13349732 -1.04449911 0 0 Z " fill="#5DD160" transform="translate(487,258)"/>
<path d="M0 0 C1.22589844 0.01353516 1.22589844 0.01353516 2.4765625 0.02734375 C3.10304688 0.03894531 3.72953125 0.05054688 4.375 0.0625 C4.375 0.7225 4.375 1.3825 4.375 2.0625 C5.035 2.0625 5.695 2.0625 6.375 2.0625 C8.2393205 6.01957553 8.61895882 9.14240563 8.5625 13.5 C8.55605469 14.59183594 8.54960937 15.68367188 8.54296875 16.80859375 C8.375 20.0625 8.375 20.0625 7.375 26.0625 C14.305 26.0625 21.235 26.0625 28.375 26.0625 C29.365 28.0425 29.365 28.0425 30.375 30.0625 C32.355 30.0625 34.335 30.0625 36.375 30.0625 C36.87 31.5475 36.87 31.5475 37.375 33.0625 C36.60414063 33.41183594 35.83328125 33.76117188 35.0390625 34.12109375 C34.03617187 34.57613281 33.03328125 35.03117187 32 35.5 C31.00226563 35.95246094 30.00453125 36.40492188 28.9765625 36.87109375 C27.43192417 37.57847316 25.89455078 38.30272461 24.375 39.0625 C24.01461285 41.37268226 24.01461285 41.37268226 23.9375 44.1875 C23.61169187 49.15755487 22.89346068 53.87418098 21.875 58.75 C20.15252268 66.84579693 20.15252268 66.84579693 19.375 75.0625 C20.34580178 76.09086954 21.34691996 77.09139165 22.375 78.0625 C23.0625 81.25 23.0625 81.25 23.375 85.0625 C23.45105469 85.74183594 23.52710938 86.42117188 23.60546875 87.12109375 C23.75 89.1875 23.75 89.1875 23.375 93.0625 C22.529375 93.825625 21.68375 94.58875 20.8125 95.375 C18.12938785 97.75914274 18.12938785 97.75914274 18.265625 100.49609375 C18.56793933 103.36410211 18.96499518 106.20808546 19.375 109.0625 C19.68460518 113.2263737 19.94686254 116.75992422 18.25 120.625 C15.60878281 122.64993318 13.60921217 122.34998553 10.375 122.0625 C10.271875 122.619375 10.16875 123.17625 10.0625 123.75 C8.8785855 127.73225787 6.75650174 131.58715232 3.375 134.0625 C0.44921875 133.99609375 0.44921875 133.99609375 -2.9375 133.5 C-7.15808623 133.08732046 -9.20466161 132.89288977 -13.1875 134.5 C-15.83904636 137.2875231 -17.18494638 139.79969571 -18.5703125 143.35546875 C-19.625 145.0625 -19.625 145.0625 -21.7421875 145.80078125 C-22.67417969 145.93033203 -22.67417969 145.93033203 -23.625 146.0625 C-23.955 147.7125 -24.285 149.3625 -24.625 151.0625 C-26.275 150.7325 -27.925 150.4025 -29.625 150.0625 C-29.955 151.0525 -30.285 152.0425 -30.625 153.0625 C-32.6875 153.75 -32.6875 153.75 -34.625 154.0625 C-33.635 155.3825 -32.645 156.7025 -31.625 158.0625 C-32.945 157.7325 -34.265 157.4025 -35.625 157.0625 C-35.625 155.0825 -35.625 153.1025 -35.625 151.0625 C-33.83463542 150.0859375 -32.04427083 149.109375 -30.25390625 148.1328125 C-28.45881685 147.14839976 -28.45881685 147.14839976 -27.625 145.0625 C-26.87349533 135.77604943 -26.49411436 127.67966095 -32.625 120.0625 C-35.1904594 117.4970406 -37.10186668 117.52203913 -40.625 117.0625 C-40.55539062 116.25425781 -40.48578125 115.44601562 -40.4140625 114.61328125 C-39.80489027 108.65150955 -39.80489027 108.65150955 -41.9609375 103.3984375 C-42.78464844 102.82996094 -42.78464844 102.82996094 -43.625 102.25 C-44.615 101.528125 -45.605 100.80625 -46.625 100.0625 C-47.23976744 95.60543606 -47.1349972 93.82749581 -44.625 90.0625 C-42.8203125 89.2109375 -42.8203125 89.2109375 -40.75 88.4375 C-36.29746124 86.35264519 -35.02852967 83.76501717 -33.31640625 79.28125 C-32.05050709 75.21892952 -31.51739028 71.84719128 -31.59765625 67.5625 C-31.60990234 66.510625 -31.62214844 65.45875 -31.63476562 64.375 C-31.66992292 62.16660104 -31.70898579 59.95826081 -31.75195312 57.75 C-31.76291016 56.698125 -31.77386719 55.64625 -31.78515625 54.5625 C-31.80199463 53.6034375 -31.81883301 52.644375 -31.83618164 51.65625 C-31.61416469 48.9294199 -30.91123762 47.43699704 -29.625 45.0625 C-29.37483575 42.64980474 -29.17142665 40.23206473 -29 37.8125 C-28.34777284 31.299613 -26.61062894 27.95756546 -21.58984375 23.75390625 C-17.76749455 20.46349432 -16.07605666 16.21064422 -14.25 11.5625 C-11.19181713 4.97564458 -7.58312397 -0.10833034 0 0 Z " fill="#F8CA0F" transform="translate(445.625,307.9375)"/>
<path d="M0 0 C4.8948611 4.27253157 5.30046265 10.54305182 5.8125 16.6875 C5.93367187 17.9559375 6.05484375 19.224375 6.1796875 20.53125 C5.83836774 25.68407733 3.77069591 28.5175847 0.0078125 31.9453125 C-0.95511719 32.62207031 -0.95511719 32.62207031 -1.9375 33.3125 C-2.63488281 33.80492187 -3.33226562 34.29734375 -4.05078125 34.8046875 C-5.04658203 35.48917969 -5.04658203 35.48917969 -6.0625 36.1875 C-7.073125 36.93 -8.08375 37.6725 -9.125 38.4375 C-14.106945 41.40546723 -19.37926688 42.35580735 -25.0625 43.1875 C-25.0625 43.8475 -25.0625 44.5075 -25.0625 45.1875 C-29.0438783 46.5146261 -32.91295227 46.25665913 -37.0625 46.1875 C-37.0625 46.8475 -37.0625 47.5075 -37.0625 48.1875 C-41.06224981 48.30460979 -45.06155281 48.37505489 -49.0625 48.4375 C-50.18785156 48.47101563 -51.31320312 48.50453125 -52.47265625 48.5390625 C-60.43169901 48.63215072 -66.07772861 47.77994834 -72.0859375 42.36328125 C-75.63814945 37.46615668 -77.36521522 33.19893997 -78.0625 27.1875 C-78.16820312 26.50558594 -78.27390625 25.82367188 -78.3828125 25.12109375 C-78.75666676 20.96806052 -77.87568661 18.37513409 -75.5625 15.0625 C-60.7785661 -2.54726742 -19.78481678 -15.51031932 0 0 Z " fill="#D99F0F" transform="translate(581.0625,96.8125)"/>
<path d="M0 0 C2.0625 1.875 2.0625 1.875 2.47265625 3.7421875 C2.5983448 6.72592449 2.5683413 9.04184962 1 11.625 C-1.34617494 13.13866125 -3.74800105 14.51210582 -6.21875 15.8125 C-7.99827938 16.80009498 -7.99827938 16.80009498 -9.27734375 18.375 C-11.62158374 20.49308978 -13.97596344 21.00995974 -17 21.875 C-18.15886719 22.21144531 -19.31773437 22.54789063 -20.51171875 22.89453125 C-22.20748047 23.37986328 -22.20748047 23.37986328 -23.9375 23.875 C-25.72960148 24.43611315 -27.52131859 24.9984567 -29.3125 25.5625 C-41.11013003 29.030174 -54.3827932 29.53967793 -65.9375 24.875 C-67.9375 22.875 -67.9375 22.875 -68.5 20.1875 C-67.51713596 14.39952286 -63.31969856 11.63799893 -58.7734375 8.2734375 C-42.19128333 -2.54101087 -18.64982821 -7.1424874 0 0 Z " fill="#FFD63A" transform="translate(575.9375,99.125)"/>
<path d="M0 0 C0.495 0.99 0.495 0.99 1 2 C1.66 2 2.32 2 3 2 C3.27794711 4.37463508 3.52273673 6.7454199 3.75 9.125 C3.83121094 9.79015625 3.91242188 10.4553125 3.99609375 11.140625 C4.45931998 16.39052229 3.33931107 19.00207048 0 23 C-1.9296875 24.7578125 -1.9296875 24.7578125 -3.875 26.125 C-4.57238281 26.61742187 -5.26976562 27.10984375 -5.98828125 27.6171875 C-6.65214844 28.07351562 -7.31601562 28.52984375 -8 29 C-9.010625 29.7425 -10.02125 30.485 -11.0625 31.25 C-16.044445 34.21796723 -21.31676688 35.16830735 -27 36 C-27 36.66 -27 37.32 -27 38 C-38.23465766 40.65460265 -49.53295935 40.19897428 -61 40 C-62.94158017 36.48375245 -63.18311068 34.0284349 -63 30 C-63.58007812 29.91363281 -64.16015625 29.82726562 -64.7578125 29.73828125 C-70.58831944 28.6895597 -73.75654564 27.13464784 -78 23 C-77.505 21.515 -77.505 21.515 -77 20 C-76.195625 20.78375 -75.39125 21.5675 -74.5625 22.375 C-67.45380196 28.21074514 -57.7241532 27.49136035 -49 27 C-33.16256931 25.34949493 -15.27392533 21.0420772 -3.5 9.5625 C-1.64950305 6.40123438 -0.83798675 3.5614437 0 0 Z " fill="#FAC219" transform="translate(583,104)"/>
<path d="M0 0 C0.99 0 1.98 0 3 0 C3.99921526 4.74627247 4.37490318 7.05459197 2.5625 11.625 C-0.13238243 15.72346703 -3.93209681 18.36381693 -8 21 C-9.15435547 21.74830078 -9.15435547 21.74830078 -10.33203125 22.51171875 C-26.42380543 31.48824285 -47.29430306 34.23165862 -65.29296875 30.92578125 C-67.82487679 29.55264119 -68.1626099 27.65817676 -69 25 C-68.36835938 25.0721875 -67.73671875 25.144375 -67.0859375 25.21875 C-51.16029083 26.87097847 -35.94899503 26.43842178 -21.07421875 19.8984375 C-19 19 -19 19 -15.75 18.0625 C-13.1490788 17.05759863 -11.86836958 16.16948763 -9.8125 14.375 C-7 12 -7 12 -4 12 C-3.67 11.01 -3.34 10.02 -3 9 C-2.34 9 -1.68 9 -1 9 C-0.67 6.03 -0.34 3.06 0 0 Z " fill="#FFA80B" transform="translate(579,100)"/>
<path d="M0 0 C1.8583659 2.78754885 2.07524976 4.81040793 1.9375 8.0625 C1.57896118 11.88577439 1.57896118 11.88577439 3.5 13.75 C3.995 14.1625 4.49 14.575 5 15 C5 16.32 5 17.64 5 19 C2.53199953 17.84826645 0.95216435 16.95216435 -1 15 C0.00250057 17.58482579 0.64399008 18.7872047 3.05859375 20.23046875 C3.84363281 20.54628906 4.62867188 20.86210937 5.4375 21.1875 C6.21996094 21.51105469 7.00242187 21.83460938 7.80859375 22.16796875 C9.52416128 22.81933396 11.25910835 23.41970278 13 24 C13.66 26.97 14.32 29.94 15 33 C22.26 33.33 29.52 33.66 37 34 C37 34.33 37 34.66 37 35 C33.00025019 35.11710979 29.00094719 35.18755489 25 35.25 C23.87464844 35.28351563 22.74929688 35.31703125 21.58984375 35.3515625 C13.63080099 35.44465072 7.98477139 34.59244834 1.9765625 29.17578125 C-1.56848656 24.28853153 -3.3266301 20.00772208 -4 14 C-4.0825 13.29488281 -4.165 12.58976562 -4.25 11.86328125 C-4.57460055 6.5378035 -3.19535091 3.99418864 0 0 Z " fill="#FF9F0D" transform="translate(507,110)"/>
<path d="M0 0 C2 2 2 2 2 4.125 C-0.81975121 12.23178472 -6.78610217 16.84905223 -14 21 C-14.70382812 21.44214844 -15.40765625 21.88429688 -16.1328125 22.33984375 C-27.83100116 29.0449031 -41.89988857 30.34945986 -55.125 30.5 C-56.07205811 30.51844971 -57.01911621 30.53689941 -57.99487305 30.5559082 C-64.94124748 30.4939144 -71.51508245 29.25453388 -76.75048828 24.36523438 C-77.16282715 23.91470703 -77.57516602 23.46417969 -78 23 C-77.505 21.515 -77.505 21.515 -77 20 C-76.195625 20.78375 -75.39125 21.5675 -74.5625 22.375 C-67.45380196 28.21074514 -57.7241532 27.49136035 -49 27 C-33.16256931 25.34949493 -15.27392533 21.0420772 -3.5 9.5625 C-1.64950305 6.40123438 -0.83798675 3.5614437 0 0 Z " fill="#FFE08E" transform="translate(583,104)"/>
<path d="M0 0 C2.9375 0.375 2.9375 0.375 6 1 C6.495 1.99 6.495 1.99 7 3 C5.35 3 3.7 3 2 3 C2.061875 3.763125 2.12375 4.52625 2.1875 5.3125 C2 8 2 8 0.625 9.8125 C-1 11 -1 11 -3 11 C-3 11.66 -3 12.32 -3 13 C-9.13111842 15.04370614 -15.76552084 14.03907986 -22 13 C-22.268125 13.7425 -22.53625 14.485 -22.8125 15.25 C-23.9479062 17.87936173 -25.27010359 19.74361338 -27 22 C-27.33 22.99 -27.66 23.98 -28 25 C-29.65 25 -31.3 25 -33 25 C-33 26.65 -33 28.3 -33 30 C-34.6232687 30.6708712 -36.24867578 31.33657029 -37.875 32 C-38.77992188 32.37125 -39.68484375 32.7425 -40.6171875 33.125 C-43 34 -43 34 -45 34 C-45 33.34 -45 32.68 -45 32 C-44.360625 31.71125 -43.72125 31.4225 -43.0625 31.125 C-40.84793921 30.17176549 -40.84793921 30.17176549 -40 28 C-38.35 28.33 -36.7 28.66 -35 29 C-35 27.35 -35 25.7 -35 24 C-34.236875 23.814375 -33.47375 23.62875 -32.6875 23.4375 C-28.93365918 21.42963165 -28.59797023 18.86176139 -27 15 C-23.553777 11.46063584 -20.91060765 10.28330429 -16 10 C-14.45631451 10.2151478 -12.91465613 10.44519346 -11.375 10.6875 C-7.80466511 11.17361671 -7.80466511 11.17361671 -4.625 9.5 C-2.62656059 6.42547783 -1.31671092 3.4234484 0 0 Z " fill="#E47339" transform="translate(456,430)"/>
<path d="M0 0 C3.2665484 2.52445221 4.6134752 4.00147948 5.73828125 8.05078125 C5.75890625 8.91703125 5.77953125 9.78328125 5.80078125 10.67578125 C5.30578125 9.68578125 5.30578125 9.68578125 4.80078125 8.67578125 C4.14078125 8.67578125 3.48078125 8.67578125 2.80078125 8.67578125 C2.80078125 7.35578125 2.80078125 6.03578125 2.80078125 4.67578125 C1.81078125 4.67578125 0.82078125 4.67578125 -0.19921875 4.67578125 C-0.19921875 6.98578125 -0.19921875 9.29578125 -0.19921875 11.67578125 C-0.52921875 11.67578125 -0.85921875 11.67578125 -1.19921875 11.67578125 C-1.50859375 10.58265625 -1.81796875 9.48953125 -2.13671875 8.36328125 C-2.78259772 6.12170131 -3.46153045 3.88884615 -4.19921875 1.67578125 C-8.44672584 -0.19098752 -12.30630085 -0.61156963 -16.91015625 -0.73828125 C-18.77607422 -0.79628906 -18.77607422 -0.79628906 -20.6796875 -0.85546875 C-21.96488281 -0.88640625 -23.25007812 -0.91734375 -24.57421875 -0.94921875 C-25.88261719 -0.98789063 -27.19101562 -1.0265625 -28.5390625 -1.06640625 C-31.75897591 -1.16041832 -34.97888755 -1.24607696 -38.19921875 -1.32421875 C-38.19921875 -1.65421875 -38.19921875 -1.98421875 -38.19921875 -2.32421875 C-25.88618624 -5.13862618 -11.32007328 -6.81617201 0 0 Z " fill="#B38F1E" transform="translate(579.19921875,95.32421875)"/>
<path d="M0 0 C0.63164062 0.0721875 1.26328125 0.144375 1.9140625 0.21875 C11.99596205 1.26471076 21.96509025 1.57410349 32 0 C35.00220657 -0.08258497 37.99754017 -0.06127469 41 0 C41 0.66 41 1.32 41 2 C30.90676343 4.03073502 21.34741642 5.56007667 11 5 C10.09894531 4.9690625 9.19789063 4.938125 8.26953125 4.90625 C5.8125 4.75 5.8125 4.75 2 4 C0.76171875 1.953125 0.76171875 1.953125 0 0 Z " fill="#FF9503" transform="translate(510,125)"/>
<path d="M0 0 C1.83062988 -0.00870117 1.83062988 -0.00870117 3.69824219 -0.01757812 C10.04882134 0.06982318 14.96667357 0.40128021 20.5625 3.5 C20.5625 4.16 20.5625 4.82 20.5625 5.5 C19.99797119 5.35925049 19.43344238 5.21850098 18.85180664 5.07348633 C11.5347422 3.41341041 4.48347802 3.16677014 -3 3.1875 C-4.16724609 3.17138672 -5.33449219 3.15527344 -6.53710938 3.13867188 C-12.74548698 3.1351742 -17.89694017 3.52050815 -23.64819336 5.95239258 C-25.4375 6.5 -25.4375 6.5 -28.4375 5.5 C-19.15197276 0.6128804 -10.38984336 0.00536804 0 0 Z " fill="#FDAE04" transform="translate(555.4375,93.5)"/>
<path d="M0 0 C2.31 0.33 4.62 0.66 7 1 C7.66 3.97 8.32 6.94 9 10 C16.26 10.33 23.52 10.66 31 11 C31 11.33 31 11.66 31 12 C27.00025019 12.11710979 23.00094719 12.18755489 19 12.25 C17.87464844 12.28351563 16.74929688 12.31703125 15.58984375 12.3515625 C8.5365992 12.43405659 4.01778684 11.7463673 -2 8 C-1.34 7.67 -0.68 7.34 0 7 C0 4.69 0 2.38 0 0 Z " fill="#D66C0B" transform="translate(513,133)"/>
<path d="M0 0 C0.33 0 0.66 0 1 0 C1.25007388 2.39528594 1.47552126 4.78879325 1.6875 7.1875 C1.76033203 7.86103516 1.83316406 8.53457031 1.90820312 9.22851562 C2.28659953 13.7915311 1.7638483 16.34092063 -1 20 C-3.1519437 16.77208445 -3.20086443 15.71599191 -3 12 C-4.98 13.32 -6.96 14.64 -9 16 C-9.66 15.67 -10.32 15.34 -11 15 C-9.9171875 14.2575 -9.9171875 14.2575 -8.8125 13.5 C-4.6106149 9.76499102 -1.77812883 5.33438648 0 0 Z " fill="#F6AE02" transform="translate(585,106)"/>
<path d="M0 0 C5.28 0.33 10.56 0.66 16 1 C16 2.32 16 3.64 16 5 C15.34 5 14.68 5 14 5 C13.67 5.99 13.34 6.98 13 8 C9.09841646 7.42198762 7.02142223 5.41713779 4 3 C1.81785432 2.22166466 1.81785432 2.22166466 0 2 C0 1.34 0 0.68 0 0 Z " fill="#F5A774" transform="translate(542,458)"/>
<path d="M0 0 C0.33 0 0.66 0 1 0 C1 3.63 1 7.26 1 11 C2.32 11.66 3.64 12.32 5 13 C3.68 13 2.36 13 1 13 C1 14.98 1 16.96 1 19 C0.34 19.33 -0.32 19.66 -1 20 C-1.66 19.67 -2.32 19.34 -3 19 C-3.33 19.99 -3.66 20.98 -4 22 C-6.0625 22.6875 -6.0625 22.6875 -8 23 C-7.01 24.32 -6.02 25.64 -5 27 C-6.32 26.67 -7.64 26.34 -9 26 C-9 24.02 -9 22.04 -9 20 C-7.20963542 19.0234375 -5.41927083 18.046875 -3.62890625 17.0703125 C-1.83381685 16.08589976 -1.83381685 16.08589976 -1 14 C-0.76970044 11.62876754 -0.58880058 9.25258057 -0.4375 6.875 C-0.35371094 5.59367187 -0.26992188 4.31234375 -0.18359375 2.9921875 C-0.12300781 2.00476563 -0.06242187 1.01734375 0 0 Z " fill="#F5CB42" transform="translate(419,439)"/>
<path d="M0 0 C2.31 0.33 4.62 0.66 7 1 C7.33 3.97 7.66 6.94 8 10 C6.02 10 4.04 10 2 10 C-0.09350689 6.5980513 -0.17942163 3.94727588 0 0 Z " fill="#FEB201" transform="translate(520,134)"/>
<path d="M0 0 C2.9375 0.375 2.9375 0.375 6 1 C6.33 1.66 6.66 2.32 7 3 C5.35 3 3.7 3 2 3 C2.061875 3.763125 2.12375 4.52625 2.1875 5.3125 C2 8 2 8 0.625 9.8125 C-1 11 -1 11 -3 11 C-3 11.66 -3 12.32 -3 13 C-4.32 13 -5.64 13 -7 13 C-5.82690214 10.45828796 -4.5091503 8.27116256 -2.9375 5.9375 C-0.89527457 3.1164266 -0.89527457 3.1164266 0 0 Z " fill="#E6673B" transform="translate(456,430)"/>
<path d="M0 0 C2.97 1.65 5.94 3.3 9 5 C9 7.97 9 10.94 9 14 C6.6875 13.4375 6.6875 13.4375 4 12 C1.85667963 7.94300072 0.9049277 4.52463848 0 0 Z " fill="#F89A03" transform="translate(505,127)"/>
<path d="M0 0 C0.99 0.33 1.98 0.66 3 1 C-11.46663831 11.62439232 -11.46663831 11.62439232 -20 11 C-18.68 10.34 -17.36 9.68 -16 9 C-16 8.34 -16 7.68 -16 7 C-15.09636719 6.66226563 -14.19273437 6.32453125 -13.26171875 5.9765625 C-12.08222656 5.53054687 -10.90273438 5.08453125 -9.6875 4.625 C-7.92986328 3.96371094 -7.92986328 3.96371094 -6.13671875 3.2890625 C-2.91446407 2.08510352 -2.91446407 2.08510352 0 0 Z " fill="#FF9002" transform="translate(572,114)"/>
<path d="M0 0 C5.10682548 0.24911344 7.91672224 1.96292684 11.5859375 5.30078125 C13.60238013 7.72385457 13.9262004 9.9004167 14 13 C13.67 12.34 13.34 11.68 13 11 C12.34 11 11.68 11 11 11 C11 9.68 11 8.36 11 7 C10.01 7 9.02 7 8 7 C8 9.31 8 11.62 8 14 C7.67 14 7.34 14 7 14 C6.690625 12.906875 6.38125 11.81375 6.0625 10.6875 C4.66176577 5.82612827 3.68531147 3.44754944 0 0 Z " fill="#D6A333" transform="translate(571,93)"/>
<path d="M0 0 C-1.24492239 3.73476717 -2.58428223 4.3447038 -5.8125 6.5 C-8.93304068 8.60187083 -12.0105809 10.71438353 -15 13 C-15.33 11.35 -15.66 9.7 -16 8 C-14.33918231 7.05096132 -12.67810365 6.10237606 -11.015625 5.15625 C-9.68751972 4.39439116 -8.36441678 3.62373474 -7.046875 2.84375 C-2.2125 0 -2.2125 0 0 0 Z " fill="#FEA90A" transform="translate(524,102)"/>
<path d="M0 0 C0.66 0.33 1.32 0.66 2 1 C2.11613204 4.10385211 2.18722029 7.20714662 2.25 10.3125 C2.30027344 11.63411133 2.30027344 11.63411133 2.3515625 12.98242188 C2.45112665 19.52876499 2.45112665 19.52876499 -0.015625 22.10546875 C-0.67046875 22.40066406 -1.3253125 22.69585938 -2 23 C-2 22.01 -2 21.02 -2 20 C-1.34 20 -0.68 20 0 20 C0 15.38 0 10.76 0 6 C-1.32 6 -2.64 6 -4 6 C-3.67 5.01 -3.34 4.02 -3 3 C-2.01 3 -1.02 3 0 3 C0 2.01 0 1.02 0 0 Z " fill="#A25858" transform="translate(492,579)"/>
<path d="M0 0 C0.625 1.8125 0.625 1.8125 1 4 C0.01 5.485 0.01 5.485 -1 7 C-1.5094612 12.98401042 -1.30462354 19.12919408 0 25 C-3.7880744 21.2119256 -4.09427296 15.01597626 -4.375 9.8125 C-3.92400815 5.22741618 -2.82367981 3.52959976 0 0 Z " fill="#AA9040" transform="translate(507,110)"/>
<path d="M0 0 C0.969375 0.78375 1.93875 1.5675 2.9375 2.375 C7.02790658 5.33383919 11.07008811 6.25101112 16 7 C16 7.99 16 8.98 16 10 C9.52721816 9.47160965 4.72090235 7.72090235 0 3 C0 2.01 0 1.02 0 0 Z " fill="#FFC06B" transform="translate(505,124)"/>
<path d="M0 0 C0.99 0 1.98 0 3 0 C4.25 7.625 4.25 7.625 2 11 C2 10.34 2 9.68 2 9 C0.68 9.99 -0.64 10.98 -2 12 C-1.34 8.04 -0.68 4.08 0 0 Z " fill="#FF9E0D" transform="translate(579,100)"/>
<path d="M0 0 C0.66 0 1.32 0 2 0 C0.90396827 2.4660714 -0.13279521 4.14109491 -2 6.125 C-4.79543906 10.14344365 -5.29468628 14.2205715 -6 19 C-6.33 19 -6.66 19 -7 19 C-6.65211719 8.093874 -6.65211719 8.093874 -4.0625 3.75 C-2 2 -2 2 0 2 C0 1.34 0 0.68 0 0 Z " fill="#ABAEBD" transform="translate(397,391)"/>
<path d="M0 0 C0.33 0 0.66 0 1 0 C1.32720056 4.68987468 0.94867259 7.29037964 -2 11 C-4.25794676 12.82642805 -6.57026935 14.39546089 -9 16 C-9.66 15.67 -10.32 15.34 -11 15 C-9.9171875 14.2575 -9.9171875 14.2575 -8.8125 13.5 C-4.6106149 9.76499102 -1.77812883 5.33438648 0 0 Z " fill="#EFA118" transform="translate(585,106)"/>
<path d="M0 0 C2 2 2 2 2 4.125 C0.52386171 8.36889758 -2.1899239 11.53681753 -5 15 C-5.99 14.34 -6.98 13.68 -8 13 C-7.236875 12.34 -6.47375 11.68 -5.6875 11 C-2.43223306 7.79097265 -1.38543586 4.30214295 0 0 Z " fill="#FDD378" transform="translate(583,104)"/>
<path d="M0 0 C1.32 0.99 2.64 1.98 4 3 C3.34 8.28 2.68 13.56 2 19 C1.67 19 1.34 19 1 19 C1.01740234 17.57107422 1.01740234 17.57107422 1.03515625 16.11328125 C1.04417969 14.85902344 1.05320312 13.60476563 1.0625 12.3125 C1.07410156 11.07113281 1.08570313 9.82976562 1.09765625 8.55078125 C1.01478673 5.53764546 0.70839449 2.91724661 0 0 Z " fill="#E97C78" transform="translate(493,450)"/>
<path d="M0 0 C3.0534135 -0.29359745 5.95743422 -0.4451258 9 0 C11.5625 2.5 11.5625 2.5 13 5 C10.0625 4.625 10.0625 4.625 7 4 C6.67 3.34 6.34 2.68 6 2 C5.01 2.33 4.02 2.66 3 3 C2.01 2.01 1.02 1.02 0 0 Z " fill="#69C687" transform="translate(577,280)"/>
<path d="M0 0 C0 3 0 3 -1.4609375 4.82421875 C-2.09257812 5.43910156 -2.72421875 6.05398438 -3.375 6.6875 C-4.00148438 7.31011719 -4.62796875 7.93273437 -5.2734375 8.57421875 C-7 10 -7 10 -9 10 C-9 11.98 -9 13.96 -9 16 C-9.33 16 -9.66 16 -10 16 C-10.62306169 13.07161008 -10.86571881 11.8110399 -10 9 C-6.96020646 5.62956225 -3.5611592 2.80441287 0 0 Z " fill="#B5B8C5" transform="translate(409,450)"/>
<path d="M0 0 C0.99 0.33 1.98 0.66 3 1 C3.33 3.97 3.66 6.94 4 10 C3.01 9.67 2.02 9.34 1 9 C0.67 6.03 0.34 3.06 0 0 Z " fill="#FE9000" transform="translate(520,134)"/>
<path d="M0 0 C0.33 0 0.66 0 1 0 C1 2.31 1 4.62 1 7 C-4.445 8.485 -4.445 8.485 -10 10 C-10 9.34 -10 8.68 -10 8 C-9.360625 7.71125 -8.72125 7.4225 -8.0625 7.125 C-5.84793921 6.17176549 -5.84793921 6.17176549 -5 4 C-3.35 4.33 -1.7 4.66 0 5 C0 3.35 0 1.7 0 0 Z " fill="#DE8228" transform="translate(421,454)"/>
<path d="M0 0 C0.66 0.33 1.32 0.66 2 1 C1.43457996 2.32031595 0.84693528 3.6311301 0.25 4.9375 C-0.07484375 5.66839844 -0.3996875 6.39929688 -0.734375 7.15234375 C-2 9 -2 9 -4.140625 9.75390625 C-5.06101562 9.87572266 -5.06101562 9.87572266 -6 10 C-6.33 11.65 -6.66 13.3 -7 15 C-7.66 14.67 -8.32 14.34 -9 14 C-8.8125 11.125 -8.8125 11.125 -8 8 C-6.34561387 7.30341637 -4.67745682 6.63903117 -3 6 C-1.15725024 2.98303591 -1.15725024 2.98303591 0 0 Z " fill="#F3B127" transform="translate(428,444)"/>
<path d="M0 0 C0.33 0 0.66 0 1 0 C0.67 2.97 0.34 5.94 0 9 C-1.65 9 -3.3 9 -5 9 C-5 10.65 -5 12.3 -5 14 C-5.33 14 -5.66 14 -6 14 C-6 11.69 -6 9.38 -6 7 C-5.38125 6.95875 -4.7625 6.9175 -4.125 6.875 C-3.42375 6.58625 -2.7225 6.2975 -2 6 C-0.6954344 3.00384054 -0.6954344 3.00384054 0 0 Z " fill="#DB6E2D" transform="translate(428,446)"/>
<path d="M0 0 C0.66 0.33 1.32 0.66 2 1 C-0.99119571 4.33633368 -3.87640111 6.24527707 -8 8 C-8.99 8 -9.98 8 -11 8 C-9.5433323 6.85204994 -8.08461063 5.70670581 -6.625 4.5625 C-5.40683594 3.60537109 -5.40683594 3.60537109 -4.1640625 2.62890625 C-2 1 -2 1 0 0 Z " fill="#BE9923" transform="translate(519,101)"/>
<path d="M0 0 C1.485 0.99 1.485 0.99 3 2 C3.1875 4.625 3.1875 4.625 3 7 C3.66 7 4.32 7 5 7 C5.66 9.31 6.32 11.62 7 14 C4.525 13.01 4.525 13.01 2 12 C1.93941406 11.38511719 1.87882812 10.77023437 1.81640625 10.13671875 C1.73261719 9.32847656 1.64882813 8.52023437 1.5625 7.6875 C1.48128906 6.88699219 1.40007812 6.08648437 1.31640625 5.26171875 C1.04734307 2.83912821 1.04734307 2.83912821 0 0 Z " fill="#EB6B54" transform="translate(486,436)"/>
<path d="M0 0 C3.12482562 -0.08687496 6.24934246 -0.14034568 9.375 -0.1875 C10.70917969 -0.22520508 10.70917969 -0.22520508 12.0703125 -0.26367188 C13.34648437 -0.27817383 13.34648437 -0.27817383 14.6484375 -0.29296875 C15.82672119 -0.31653442 15.82672119 -0.31653442 17.02880859 -0.34057617 C17.67930176 -0.22818604 18.32979492 -0.1157959 19 0 C19.66 0.99 20.32 1.98 21 3 C14.07 2.34 7.14 1.68 0 1 C0 0.67 0 0.34 0 0 Z " fill="#D0CB26" transform="translate(455,334)"/>
<path d="M0 0 C0 3 0 3 -2 5.1875 C-2.66 5.785625 -3.32 6.38375 -4 7 C-4.66 5.02 -5.32 3.04 -6 1 C-4.02 0.67 -2.04 0.34 0 0 Z " fill="#343D61" transform="translate(405,383)"/>
<path d="M0 0 C6.0546875 -0.1953125 6.0546875 -0.1953125 8 0 C8.66 0.66 9.32 1.32 10 2 C6.52674819 3.1577506 3.63932552 3.06866652 0 3 C0 2.01 0 1.02 0 0 Z " fill="#18224E" transform="translate(390,382)"/>
<path d="M0 0 C0.99 0.33 1.98 0.66 3 1 C1.7934375 2.051875 1.7934375 2.051875 0.5625 3.125 C-2.23433811 6.26291593 -2.71308751 7.88758763 -3 12 C-3.33 12 -3.66 12 -4 12 C-4.49230769 4.61538462 -4.49230769 4.61538462 -2 1.5 C-1.34 1.005 -0.68 0.51 0 0 Z " fill="#E6F0FD" transform="translate(613,264)"/>
<path d="M0 0 C0.66 0 1.32 0 2 0 C1.71905418 1.8141927 1.42493567 3.62635001 1.125 5.4375 C0.88136719 6.95150391 0.88136719 6.95150391 0.6328125 8.49609375 C0.42398437 9.32238281 0.21515625 10.14867187 0 11 C-0.99 11.495 -0.99 11.495 -2 12 C-1.85962479 10.18706911 -1.71255111 8.3746557 -1.5625 6.5625 C-1.48128906 5.55316406 -1.40007812 4.54382813 -1.31640625 3.50390625 C-1 1 -1 1 0 0 Z " fill="#3A3A3E" transform="translate(425,304)"/>
<path d="M0 0 C0.66 0 1.32 0 2 0 C1.35389319 3.48897679 -0.01871317 6.06769549 -2 9 C-2.99 9.495 -2.99 9.495 -4 10 C-3.67 8.35 -3.34 6.7 -3 5 C-2.34 5 -1.68 5 -1 5 C-0.67 3.35 -0.34 1.7 0 0 Z " fill="#F3B529" transform="translate(454,430)"/>
<path d="M0 0 C0.66 0 1.32 0 2 0 C1.68289063 0.54140625 1.36578125 1.0828125 1.0390625 1.640625 C-0.18307974 4.4157149 -0.40943436 6.73208098 -0.625 9.75 C-0.69976563 10.73484375 -0.77453125 11.7196875 -0.8515625 12.734375 C-0.90054688 13.48203125 -0.94953125 14.2296875 -1 15 C-1.33 15 -1.66 15 -2 15 C-2.05386629 12.87527424 -2.09273071 10.75016348 -2.125 8.625 C-2.14820313 7.44164062 -2.17140625 6.25828125 -2.1953125 5.0390625 C-2 2 -2 2 0 0 Z " fill="#FEE6D6" transform="translate(572,355)"/>
<path d="M0 0 C0.33 0 0.66 0 1 0 C2.125 3.3125 2.125 3.3125 3 7 C2.01 8.485 2.01 8.485 1 10 C0.34 10 -0.32 10 -1 10 C-0.67 6.7 -0.34 3.4 0 0 Z " fill="#F1C41E" transform="translate(463,378)"/>
<path d="M0 0 C0.66 0 1.32 0 2 0 C0.69425831 2.91280837 -0.7074208 4.80294493 -3 7 C-3.66 7.99 -4.32 8.98 -5 10 C-4.49890042 5.61537866 -3.01704885 3.1999003 0 0 Z " fill="#BBBECC" transform="translate(467,263)"/>
<path d="M0 0 C0.66 0 1.32 0 2 0 C2.33 1.32 2.66 2.64 3 4 C3.66 4 4.32 4 5 4 C4.34 5.65 3.68 7.3 3 9 C0.87491756 5.81237635 0.4979837 3.73487777 0 0 Z " fill="#F09303" transform="translate(581,117)"/>
<path d="M0 0 C0.66 0.33 1.32 0.66 2 1 C1.04882866 2.1725131 0.08882991 3.33787015 -0.875 4.5 C-1.40867187 5.1496875 -1.94234375 5.799375 -2.4921875 6.46875 C-2.98976563 6.9740625 -3.48734375 7.479375 -4 8 C-4.66 8 -5.32 8 -6 8 C-4.55746343 4.63408134 -2.66735273 2.48952921 0 0 Z " fill="#414867" transform="translate(509,569)"/>
<path d="M0 0 C-2.00773956 2.00773956 -3.36873617 2.99392854 -6 4 C-8.25 3.625 -8.25 3.625 -10 3 C-6.48812804 0.59185923 -4.27343092 -0.36629408 0 0 Z " fill="#EE5F4E" transform="translate(422,461)"/>
<path d="M0 0 C0.66 0 1.32 0 2 0 C0.55746343 3.36591866 -1.33264727 5.51047079 -4 8 C-4.66 7.67 -5.32 7.34 -6 7 C-5.04882866 5.8274869 -4.08882991 4.66212985 -3.125 3.5 C-2.59132813 2.8503125 -2.05765625 2.200625 -1.5078125 1.53125 C-0.76144531 0.77328125 -0.76144531 0.77328125 0 0 Z " fill="#CED0DA" transform="translate(455,290)"/>
<path d="M0 0 C2.64 1.98 5.28 3.96 8 6 C7.01 6.33 6.02 6.66 5 7 C2.3125 5.25 2.3125 5.25 0 3 C0 2.01 0 1.02 0 0 Z " fill="#FED673" transform="translate(505,124)"/>
<path d="M0 0 C-0.33 0.66 -0.66 1.32 -1 2 C-3.06640625 2.6328125 -3.06640625 2.6328125 -5.5625 3.125 C-6.80193359 3.37636719 -6.80193359 3.37636719 -8.06640625 3.6328125 C-8.70449219 3.75398437 -9.34257813 3.87515625 -10 4 C-6.66064924 0.50886057 -4.84725717 -0.1275594 0 0 Z " fill="#FFE6A9" transform="translate(565,125)"/>
<path d="M0 0 C1.65 1.32 3.3 2.64 5 4 C4.67 5.32 4.34 6.64 4 8 C1.10067643 5.60490662 0.49831724 3.68754757 0 0 Z " fill="#F7B50A" transform="translate(505,127)"/>
<path d="M0 0 C0.33 0.66 0.66 1.32 1 2 C3.97 2 6.94 2 10 2 C10 2.33 10 2.66 10 3 C4.06 3.495 4.06 3.495 -2 4 C-1.34 2.68 -0.68 1.36 0 0 Z " fill="#C5DBFD" transform="translate(451,223)"/>
<path d="M0 0 C0.99 0.99 1.98 1.98 3 3 C1.02 5.97 1.02 5.97 -1 9 C-2.25541557 5.23375329 -1.37061958 3.62811066 0 0 Z " fill="#FF8903" transform="translate(579,103)"/>
</svg>
